<?xml version="1.0" encoding="utf-8" standalone="no"?>
<!DOCTYPE svg PUBLIC "-//W3C//DTD SVG 1.1//EN"
  "http://www.w3.org/Graphics/SVG/1.1/DTD/svg11.dtd">
<svg xmlns:xlink="http://www.w3.org/1999/xlink" width="506.6725pt" height="310.4275pt" viewBox="0 0 506.6725 310.4275" xmlns="http://www.w3.org/2000/svg" version="1.1">
 <metadata>
  <rdf:RDF xmlns:dc="http://purl.org/dc/elements/1.1/" xmlns:cc="http://creativecommons.org/ns#" xmlns:rdf="http://www.w3.org/1999/02/22-rdf-syntax-ns#">
   <cc:Work>
    <dc:type rdf:resource="http://purl.org/dc/dcmitype/StillImage"/>
    <dc:date>2026-07-13T22:24:17.191230</dc:date>
    <dc:format>image/svg+xml</dc:format>
    <dc:creator>
     <cc:Agent>
      <dc:title>Matplotlib v3.9.1, https://matplotlib.org/</dc:title>
     </cc:Agent>
    </dc:creator>
   </cc:Work>
  </rdf:RDF>
 </metadata>
 <defs>
  <style type="text/css">*{stroke-linejoin: round; stroke-linecap: butt}</style>
 </defs>
 <g id="figure_1">
  <g id="patch_1">
   <path d="M 0 310.4275 
L 506.6725 310.4275 
L 506.6725 0 
L 0 0 
z
" style="fill: #ffffff"/>
  </g>
  <g id="axes_1">
   <g id="patch_2">
    <path d="M 53.0725 264.58 
L 499.4725 264.58 
L 499.4725 42.82 
L 53.0725 42.82 
z
" style="fill: #ffffff"/>
   </g>
   <g id="patch_3">
    <path d="M 135.264895 264.58 
L 179.934675 264.58 
L 179.934675 42.82 
L 135.264895 42.82 
z
" clip-path="url(#p4f088a5210)" style="fill: #3498db; opacity: 0.45"/>
   </g>
   <g id="matplotlib.axis_1">
    <g id="xtick_1">
     <g id="line2d_1">
      <defs>
       <path id="mf7fe8237ad" d="M 0 0 
L 0 -4 
" style="stroke: #000000; stroke-width: 1.2"/>
      </defs>
      <g>
       <use xlink:href="#mf7fe8237ad" x="53.0725" y="264.58" style="stroke: #000000; stroke-width: 1.2"/>
      </g>
     </g>
     <g id="line2d_2">
      <defs>
       <path id="med31213e4b" d="M 0 0 
L 0 4 
" style="stroke: #000000; stroke-width: 1.2"/>
      </defs>
      <g>
       <use xlink:href="#med31213e4b" x="53.0725" y="42.82" style="stroke: #000000; stroke-width: 1.2"/>
      </g>
     </g>
     <g id="text_1">
      <g id="patch_4">
       <path d="M 44.43175 288.4045 
L 61.71325 288.4045 
L 61.71325 265.388 
L 44.43175 265.388 
z
" style="fill: #ffffff; stroke: #ffffff; stroke-linejoin: miter"/>
      </g>
      <path d="M 49.28875 275.385 
Q 49.28875 273.3525 49.70625 272.115 
Q 50.12375 270.875 50.94625 270.205 
Q 51.77125 269.5325 53.02125 269.5325 
Q 53.94375 269.5325 54.63875 269.905 
Q 55.33375 270.275 55.78625 270.975 
Q 56.24125 271.6725 56.49875 272.6775 
Q 56.75625 273.68 56.75625 275.385 
Q 56.75625 277.4 56.34125 278.6375 
Q 55.92875 279.875 55.10375 280.5525 
Q 54.28125 281.2275 53.02125 281.2275 
Q 51.36625 281.2275 50.42125 280.04 
Q 49.28875 278.61 49.28875 275.385 
z
M 50.73375 275.385 
Q 50.73375 278.205 51.39375 279.14 
Q 52.05375 280.0725 53.02125 280.0725 
Q 53.99125 280.0725 54.65125 279.135 
Q 55.31125 278.1975 55.31125 275.385 
Q 55.31125 272.555 54.65125 271.6275 
Q 53.99125 270.6975 53.00625 270.6975 
Q 52.03875 270.6975 51.45875 271.5175 
Q 50.73375 272.5625 50.73375 275.385 
z
" style="stroke: #ffffff"/>
      <path d="M 49.28875 275.385 
Q 49.28875 273.3525 49.70625 272.115 
Q 50.12375 270.875 50.94625 270.205 
Q 51.77125 269.5325 53.02125 269.5325 
Q 53.94375 269.5325 54.63875 269.905 
Q 55.33375 270.275 55.78625 270.975 
Q 56.24125 271.6725 56.49875 272.6775 
Q 56.75625 273.68 56.75625 275.385 
Q 56.75625 277.4 56.34125 278.6375 
Q 55.92875 279.875 55.10375 280.5525 
Q 54.28125 281.2275 53.02125 281.2275 
Q 51.36625 281.2275 50.42125 280.04 
Q 49.28875 278.61 49.28875 275.385 
z
M 50.73375 275.385 
Q 50.73375 278.205 51.39375 279.14 
Q 52.05375 280.0725 53.02125 280.0725 
Q 53.99125 280.0725 54.65125 279.135 
Q 55.31125 278.1975 55.31125 275.385 
Q 55.31125 272.555 54.65125 271.6275 
Q 53.99125 270.6975 53.00625 270.6975 
Q 52.03875 270.6975 51.45875 271.5175 
Q 50.73375 272.5625 50.73375 275.385 
z
"/>
     </g>
    </g>
    <g id="xtick_2">
     <g id="line2d_3">
      <g>
       <use xlink:href="#mf7fe8237ad" x="127.522133" y="264.58" style="stroke: #000000; stroke-width: 1.2"/>
      </g>
     </g>
     <g id="line2d_4">
      <g>
       <use xlink:href="#med31213e4b" x="127.522133" y="42.82" style="stroke: #000000; stroke-width: 1.2"/>
      </g>
     </g>
     <g id="text_2">
      <g id="patch_5">
       <path d="M 118.881383 288.4045 
L 136.162883 288.4045 
L 136.162883 265.388 
L 118.881383 265.388 
z
" style="fill: #ffffff; stroke: #ffffff; stroke-linejoin: miter"/>
      </g>
      <path d="M 123.738383 278.0325 
L 125.213383 277.9075 
Q 125.378383 278.985 125.975883 279.53 
Q 126.573383 280.0725 127.418383 280.0725 
Q 128.433383 280.0725 129.135883 279.3075 
Q 129.838383 278.54 129.838383 277.275 
Q 129.838383 276.0725 129.163383 275.3775 
Q 128.488383 274.68 127.393383 274.68 
Q 126.713383 274.68 126.165883 274.99 
Q 125.620883 275.2975 125.308383 275.79 
L 123.988383 275.6175 
L 125.095883 269.735 
L 130.793383 269.735 
L 130.793383 271.08 
L 126.220883 271.08 
L 125.605883 274.1575 
Q 126.635883 273.4375 127.768383 273.4375 
Q 129.268383 273.4375 130.298383 274.4775 
Q 131.330883 275.5175 131.330883 277.15 
Q 131.330883 278.705 130.425883 279.8375 
Q 129.323383 281.2275 127.418383 281.2275 
Q 125.855883 281.2275 124.865883 280.3525 
Q 123.878383 279.4775 123.738383 278.0325 
z
" style="stroke: #ffffff"/>
      <path d="M 123.738383 278.0325 
L 125.213383 277.9075 
Q 125.378383 278.985 125.975883 279.53 
Q 126.573383 280.0725 127.418383 280.0725 
Q 128.433383 280.0725 129.135883 279.3075 
Q 129.838383 278.54 129.838383 277.275 
Q 129.838383 276.0725 129.163383 275.3775 
Q 128.488383 274.68 127.393383 274.68 
Q 126.713383 274.68 126.165883 274.99 
Q 125.620883 275.2975 125.308383 275.79 
L 123.988383 275.6175 
L 125.095883 269.735 
L 130.793383 269.735 
L 130.793383 271.08 
L 126.220883 271.08 
L 125.605883 274.1575 
Q 126.635883 273.4375 127.768383 273.4375 
Q 129.268383 273.4375 130.298383 274.4775 
Q 131.330883 275.5175 131.330883 277.15 
Q 131.330883 278.705 130.425883 279.8375 
Q 129.323383 281.2275 127.418383 281.2275 
Q 125.855883 281.2275 124.865883 280.3525 
Q 123.878383 279.4775 123.738383 278.0325 
z
"/>
     </g>
    </g>
    <g id="xtick_3">
     <g id="line2d_5">
      <g>
       <use xlink:href="#mf7fe8237ad" x="201.971766" y="264.58" style="stroke: #000000; stroke-width: 1.2"/>
      </g>
     </g>
     <g id="line2d_6">
      <g>
       <use xlink:href="#med31213e4b" x="201.971766" y="42.82" style="stroke: #000000; stroke-width: 1.2"/>
      </g>
     </g>
     <g id="text_3">
      <g id="patch_6">
       <path d="M 188.882266 288.4045 
L 215.061266 288.4045 
L 215.061266 265.388 
L 188.882266 265.388 
z
" style="fill: #ffffff; stroke: #ffffff; stroke-linejoin: miter"/>
      </g>
      <path d="M 199.034266 281.0325 
L 197.629266 281.0325 
L 197.629266 272.0725 
Q 197.121766 272.555 196.296766 273.04 
Q 195.471766 273.525 194.816766 273.7675 
L 194.816766 272.4075 
Q 195.996766 271.8525 196.879266 271.065 
Q 197.761766 270.275 198.129266 269.5325 
L 199.034266 269.5325 
L 199.034266 281.0325 
z
M 202.637704 275.385 
Q 202.637704 273.3525 203.055204 272.115 
Q 203.472704 270.875 204.295204 270.205 
Q 205.120204 269.5325 206.370204 269.5325 
Q 207.292704 269.5325 207.987704 269.905 
Q 208.682704 270.275 209.135204 270.975 
Q 209.590204 271.6725 209.847704 272.6775 
Q 210.105204 273.68 210.105204 275.385 
Q 210.105204 277.4 209.690204 278.6375 
Q 209.277704 279.875 208.452704 280.5525 
Q 207.630204 281.2275 206.370204 281.2275 
Q 204.715204 281.2275 203.770204 280.04 
Q 202.637704 278.61 202.637704 275.385 
z
M 204.082704 275.385 
Q 204.082704 278.205 204.742704 279.14 
Q 205.402704 280.0725 206.370204 280.0725 
Q 207.340204 280.0725 208.000204 279.135 
Q 208.660204 278.1975 208.660204 275.385 
Q 208.660204 272.555 208.000204 271.6275 
Q 207.340204 270.6975 206.355204 270.6975 
Q 205.387704 270.6975 204.807704 271.5175 
Q 204.082704 272.5625 204.082704 275.385 
z
" style="stroke: #ffffff"/>
      <path d="M 199.034266 281.0325 
L 197.629266 281.0325 
L 197.629266 272.0725 
Q 197.121766 272.555 196.296766 273.04 
Q 195.471766 273.525 194.816766 273.7675 
L 194.816766 272.4075 
Q 195.996766 271.8525 196.879266 271.065 
Q 197.761766 270.275 198.129266 269.5325 
L 199.034266 269.5325 
L 199.034266 281.0325 
z
M 202.637704 275.385 
Q 202.637704 273.3525 203.055204 272.115 
Q 203.472704 270.875 204.295204 270.205 
Q 205.120204 269.5325 206.370204 269.5325 
Q 207.292704 269.5325 207.987704 269.905 
Q 208.682704 270.275 209.135204 270.975 
Q 209.590204 271.6725 209.847704 272.6775 
Q 210.105204 273.68 210.105204 275.385 
Q 210.105204 277.4 209.690204 278.6375 
Q 209.277704 279.875 208.452704 280.5525 
Q 207.630204 281.2275 206.370204 281.2275 
Q 204.715204 281.2275 203.770204 280.04 
Q 202.637704 278.61 202.637704 275.385 
z
M 204.082704 275.385 
Q 204.082704 278.205 204.742704 279.14 
Q 205.402704 280.0725 206.370204 280.0725 
Q 207.340204 280.0725 208.000204 279.135 
Q 208.660204 278.1975 208.660204 275.385 
Q 208.660204 272.555 208.000204 271.6275 
Q 207.340204 270.6975 206.355204 270.6975 
Q 205.387704 270.6975 204.807704 271.5175 
Q 204.082704 272.5625 204.082704 275.385 
z
"/>
     </g>
    </g>
    <g id="xtick_4">
     <g id="line2d_7">
      <g>
       <use xlink:href="#mf7fe8237ad" x="276.421399" y="264.58" style="stroke: #000000; stroke-width: 1.2"/>
      </g>
     </g>
     <g id="line2d_8">
      <g>
       <use xlink:href="#med31213e4b" x="276.421399" y="42.82" style="stroke: #000000; stroke-width: 1.2"/>
      </g>
     </g>
     <g id="text_4">
      <g id="patch_7">
       <path d="M 263.331899 288.4045 
L 289.510899 288.4045 
L 289.510899 265.388 
L 263.331899 265.388 
z
" style="fill: #ffffff; stroke: #ffffff; stroke-linejoin: miter"/>
      </g>
      <path d="M 273.483899 281.0325 
L 272.078899 281.0325 
L 272.078899 272.0725 
Q 271.571399 272.555 270.746399 273.04 
Q 269.921399 273.525 269.266399 273.7675 
L 269.266399 272.4075 
Q 270.446399 271.8525 271.328899 271.065 
Q 272.211399 270.275 272.578899 269.5325 
L 273.483899 269.5325 
L 273.483899 281.0325 
z
M 277.087337 278.0325 
L 278.562337 277.9075 
Q 278.727337 278.985 279.324837 279.53 
Q 279.922337 280.0725 280.767337 280.0725 
Q 281.782337 280.0725 282.484837 279.3075 
Q 283.187337 278.54 283.187337 277.275 
Q 283.187337 276.0725 282.512337 275.3775 
Q 281.837337 274.68 280.742337 274.68 
Q 280.062337 274.68 279.514837 274.99 
Q 278.969837 275.2975 278.657337 275.79 
L 277.337337 275.6175 
L 278.444837 269.735 
L 284.142337 269.735 
L 284.142337 271.08 
L 279.569837 271.08 
L 278.954837 274.1575 
Q 279.984837 273.4375 281.117337 273.4375 
Q 282.617337 273.4375 283.647337 274.4775 
Q 284.679837 275.5175 284.679837 277.15 
Q 284.679837 278.705 283.774837 279.8375 
Q 282.672337 281.2275 280.767337 281.2275 
Q 279.204837 281.2275 278.214837 280.3525 
Q 277.227337 279.4775 277.087337 278.0325 
z
" style="stroke: #ffffff"/>
      <path d="M 273.483899 281.0325 
L 272.078899 281.0325 
L 272.078899 272.0725 
Q 271.571399 272.555 270.746399 273.04 
Q 269.921399 273.525 269.266399 273.7675 
L 269.266399 272.4075 
Q 270.446399 271.8525 271.328899 271.065 
Q 272.211399 270.275 272.578899 269.5325 
L 273.483899 269.5325 
L 273.483899 281.0325 
z
M 277.087337 278.0325 
L 278.562337 277.9075 
Q 278.727337 278.985 279.324837 279.53 
Q 279.922337 280.0725 280.767337 280.0725 
Q 281.782337 280.0725 282.484837 279.3075 
Q 283.187337 278.54 283.187337 277.275 
Q 283.187337 276.0725 282.512337 275.3775 
Q 281.837337 274.68 280.742337 274.68 
Q 280.062337 274.68 279.514837 274.99 
Q 278.969837 275.2975 278.657337 275.79 
L 277.337337 275.6175 
L 278.444837 269.735 
L 284.142337 269.735 
L 284.142337 271.08 
L 279.569837 271.08 
L 278.954837 274.1575 
Q 279.984837 273.4375 281.117337 273.4375 
Q 282.617337 273.4375 283.647337 274.4775 
Q 284.679837 275.5175 284.679837 277.15 
Q 284.679837 278.705 283.774837 279.8375 
Q 282.672337 281.2275 280.767337 281.2275 
Q 279.204837 281.2275 278.214837 280.3525 
Q 277.227337 279.4775 277.087337 278.0325 
z
"/>
     </g>
    </g>
    <g id="xtick_5">
     <g id="line2d_9">
      <g>
       <use xlink:href="#mf7fe8237ad" x="350.871032" y="264.58" style="stroke: #000000; stroke-width: 1.2"/>
      </g>
     </g>
     <g id="line2d_10">
      <g>
       <use xlink:href="#med31213e4b" x="350.871032" y="42.82" style="stroke: #000000; stroke-width: 1.2"/>
      </g>
     </g>
     <g id="text_5">
      <g id="patch_8">
       <path d="M 337.781532 288.4045 
L 363.960532 288.4045 
L 363.960532 265.388 
L 337.781532 265.388 
z
" style="fill: #ffffff; stroke: #ffffff; stroke-linejoin: miter"/>
      </g>
      <path d="M 350.028532 279.68 
L 350.028532 281.0325 
L 342.458532 281.0325 
Q 342.443532 280.525 342.621032 280.055 
Q 342.911032 279.2825 343.546032 278.5325 
Q 344.183532 277.7825 345.388532 276.7975 
Q 347.256032 275.2675 347.911032 274.3725 
Q 348.568532 273.4775 348.568532 272.68 
Q 348.568532 271.845 347.968532 271.2725 
Q 347.371032 270.6975 346.411032 270.6975 
Q 345.396032 270.6975 344.786032 271.3075 
Q 344.176032 271.915 344.168532 272.9925 
L 342.723532 272.845 
Q 342.871032 271.2275 343.838532 270.38 
Q 344.808532 269.5325 346.443532 269.5325 
Q 348.091032 269.5325 349.051032 270.4475 
Q 350.013532 271.36 350.013532 272.7125 
Q 350.013532 273.4 349.731032 274.065 
Q 349.451032 274.7275 348.798532 275.4625 
Q 348.146032 276.1975 346.631032 277.4775 
Q 345.363532 278.54 345.003532 278.92 
Q 344.646032 279.2975 344.411032 279.68 
L 350.028532 279.68 
z
M 351.53697 275.385 
Q 351.53697 273.3525 351.95447 272.115 
Q 352.37197 270.875 353.19447 270.205 
Q 354.01947 269.5325 355.26947 269.5325 
Q 356.19197 269.5325 356.88697 269.905 
Q 357.58197 270.275 358.03447 270.975 
Q 358.48947 271.6725 358.74697 272.6775 
Q 359.00447 273.68 359.00447 275.385 
Q 359.00447 277.4 358.58947 278.6375 
Q 358.17697 279.875 357.35197 280.5525 
Q 356.52947 281.2275 355.26947 281.2275 
Q 353.61447 281.2275 352.66947 280.04 
Q 351.53697 278.61 351.53697 275.385 
z
M 352.98197 275.385 
Q 352.98197 278.205 353.64197 279.14 
Q 354.30197 280.0725 355.26947 280.0725 
Q 356.23947 280.0725 356.89947 279.135 
Q 357.55947 278.1975 357.55947 275.385 
Q 357.55947 272.555 356.89947 271.6275 
Q 356.23947 270.6975 355.25447 270.6975 
Q 354.28697 270.6975 353.70697 271.5175 
Q 352.98197 272.5625 352.98197 275.385 
z
" style="stroke: #ffffff"/>
      <path d="M 350.028532 279.68 
L 350.028532 281.0325 
L 342.458532 281.0325 
Q 342.443532 280.525 342.621032 280.055 
Q 342.911032 279.2825 343.546032 278.5325 
Q 344.183532 277.7825 345.388532 276.7975 
Q 347.256032 275.2675 347.911032 274.3725 
Q 348.568532 273.4775 348.568532 272.68 
Q 348.568532 271.845 347.968532 271.2725 
Q 347.371032 270.6975 346.411032 270.6975 
Q 345.396032 270.6975 344.786032 271.3075 
Q 344.176032 271.915 344.168532 272.9925 
L 342.723532 272.845 
Q 342.871032 271.2275 343.838532 270.38 
Q 344.808532 269.5325 346.443532 269.5325 
Q 348.091032 269.5325 349.051032 270.4475 
Q 350.013532 271.36 350.013532 272.7125 
Q 350.013532 273.4 349.731032 274.065 
Q 349.451032 274.7275 348.798532 275.4625 
Q 348.146032 276.1975 346.631032 277.4775 
Q 345.363532 278.54 345.003532 278.92 
Q 344.646032 279.2975 344.411032 279.68 
L 350.028532 279.68 
z
M 351.53697 275.385 
Q 351.53697 273.3525 351.95447 272.115 
Q 352.37197 270.875 353.19447 270.205 
Q 354.01947 269.5325 355.26947 269.5325 
Q 356.19197 269.5325 356.88697 269.905 
Q 357.58197 270.275 358.03447 270.975 
Q 358.48947 271.6725 358.74697 272.6775 
Q 359.00447 273.68 359.00447 275.385 
Q 359.00447 277.4 358.58947 278.6375 
Q 358.17697 279.875 357.35197 280.5525 
Q 356.52947 281.2275 355.26947 281.2275 
Q 353.61447 281.2275 352.66947 280.04 
Q 351.53697 278.61 351.53697 275.385 
z
M 352.98197 275.385 
Q 352.98197 278.205 353.64197 279.14 
Q 354.30197 280.0725 355.26947 280.0725 
Q 356.23947 280.0725 356.89947 279.135 
Q 357.55947 278.1975 357.55947 275.385 
Q 357.55947 272.555 356.89947 271.6275 
Q 356.23947 270.6975 355.25447 270.6975 
Q 354.28697 270.6975 353.70697 271.5175 
Q 352.98197 272.5625 352.98197 275.385 
z
"/>
     </g>
    </g>
    <g id="xtick_6">
     <g id="line2d_11">
      <g>
       <use xlink:href="#mf7fe8237ad" x="425.320665" y="264.58" style="stroke: #000000; stroke-width: 1.2"/>
      </g>
     </g>
     <g id="line2d_12">
      <g>
       <use xlink:href="#med31213e4b" x="425.320665" y="42.82" style="stroke: #000000; stroke-width: 1.2"/>
      </g>
     </g>
     <g id="text_6">
      <g id="patch_9">
       <path d="M 412.231165 288.4045 
L 438.410165 288.4045 
L 438.410165 265.388 
L 412.231165 265.388 
z
" style="fill: #ffffff; stroke: #ffffff; stroke-linejoin: miter"/>
      </g>
      <path d="M 424.478165 279.68 
L 424.478165 281.0325 
L 416.908165 281.0325 
Q 416.893165 280.525 417.070665 280.055 
Q 417.360665 279.2825 417.995665 278.5325 
Q 418.633165 277.7825 419.838165 276.7975 
Q 421.705665 275.2675 422.360665 274.3725 
Q 423.018165 273.4775 423.018165 272.68 
Q 423.018165 271.845 422.418165 271.2725 
Q 421.820665 270.6975 420.860665 270.6975 
Q 419.845665 270.6975 419.235665 271.3075 
Q 418.625665 271.915 418.618165 272.9925 
L 417.173165 272.845 
Q 417.320665 271.2275 418.288165 270.38 
Q 419.258165 269.5325 420.893165 269.5325 
Q 422.540665 269.5325 423.500665 270.4475 
Q 424.463165 271.36 424.463165 272.7125 
Q 424.463165 273.4 424.180665 274.065 
Q 423.900665 274.7275 423.248165 275.4625 
Q 422.595665 276.1975 421.080665 277.4775 
Q 419.813165 278.54 419.453165 278.92 
Q 419.095665 279.2975 418.860665 279.68 
L 424.478165 279.68 
z
M 425.986603 278.0325 
L 427.461603 277.9075 
Q 427.626603 278.985 428.224103 279.53 
Q 428.821603 280.0725 429.666603 280.0725 
Q 430.681603 280.0725 431.384103 279.3075 
Q 432.086603 278.54 432.086603 277.275 
Q 432.086603 276.0725 431.411603 275.3775 
Q 430.736603 274.68 429.641603 274.68 
Q 428.961603 274.68 428.414103 274.99 
Q 427.869103 275.2975 427.556603 275.79 
L 426.236603 275.6175 
L 427.344103 269.735 
L 433.041603 269.735 
L 433.041603 271.08 
L 428.469103 271.08 
L 427.854103 274.1575 
Q 428.884103 273.4375 430.016603 273.4375 
Q 431.516603 273.4375 432.546603 274.4775 
Q 433.579103 275.5175 433.579103 277.15 
Q 433.579103 278.705 432.674103 279.8375 
Q 431.571603 281.2275 429.666603 281.2275 
Q 428.104103 281.2275 427.114103 280.3525 
Q 426.126603 279.4775 425.986603 278.0325 
z
" style="stroke: #ffffff"/>
      <path d="M 424.478165 279.68 
L 424.478165 281.0325 
L 416.908165 281.0325 
Q 416.893165 280.525 417.070665 280.055 
Q 417.360665 279.2825 417.995665 278.5325 
Q 418.633165 277.7825 419.838165 276.7975 
Q 421.705665 275.2675 422.360665 274.3725 
Q 423.018165 273.4775 423.018165 272.68 
Q 423.018165 271.845 422.418165 271.2725 
Q 421.820665 270.6975 420.860665 270.6975 
Q 419.845665 270.6975 419.235665 271.3075 
Q 418.625665 271.915 418.618165 272.9925 
L 417.173165 272.845 
Q 417.320665 271.2275 418.288165 270.38 
Q 419.258165 269.5325 420.893165 269.5325 
Q 422.540665 269.5325 423.500665 270.4475 
Q 424.463165 271.36 424.463165 272.7125 
Q 424.463165 273.4 424.180665 274.065 
Q 423.900665 274.7275 423.248165 275.4625 
Q 422.595665 276.1975 421.080665 277.4775 
Q 419.813165 278.54 419.453165 278.92 
Q 419.095665 279.2975 418.860665 279.68 
L 424.478165 279.68 
z
M 425.986603 278.0325 
L 427.461603 277.9075 
Q 427.626603 278.985 428.224103 279.53 
Q 428.821603 280.0725 429.666603 280.0725 
Q 430.681603 280.0725 431.384103 279.3075 
Q 432.086603 278.54 432.086603 277.275 
Q 432.086603 276.0725 431.411603 275.3775 
Q 430.736603 274.68 429.641603 274.68 
Q 428.961603 274.68 428.414103 274.99 
Q 427.869103 275.2975 427.556603 275.79 
L 426.236603 275.6175 
L 427.344103 269.735 
L 433.041603 269.735 
L 433.041603 271.08 
L 428.469103 271.08 
L 427.854103 274.1575 
Q 428.884103 273.4375 430.016603 273.4375 
Q 431.516603 273.4375 432.546603 274.4775 
Q 433.579103 275.5175 433.579103 277.15 
Q 433.579103 278.705 432.674103 279.8375 
Q 431.571603 281.2275 429.666603 281.2275 
Q 428.104103 281.2275 427.114103 280.3525 
Q 426.126603 279.4775 425.986603 278.0325 
z
"/>
     </g>
    </g>
    <g id="text_7">
     <g id="patch_10">
      <path d="M 247.24625 303.2275 
L 305.29875 303.2275 
L 305.29875 288.2125 
L 247.24625 288.2125 
z
" style="fill: #ffffff"/>
     </g>
     <path d="M 251.39375 299.86 
L 251.39375 289.7575 
L 247.62125 289.7575 
L 247.62125 288.4075 
L 256.69875 288.4075 
L 256.69875 289.7575 
L 252.91125 289.7575 
L 252.91125 299.86 
L 251.39375 299.86 
z
M 257.482187 290.025 
L 257.482187 288.4075 
L 258.889687 288.4075 
L 258.889687 290.025 
L 257.482187 290.025 
z
M 257.482187 299.86 
L 257.482187 291.5625 
L 258.889687 291.5625 
L 258.889687 299.86 
L 257.482187 299.86 
z
M 261.029375 299.86 
L 261.029375 291.5625 
L 262.286875 291.5625 
L 262.286875 292.7275 
Q 262.676875 292.1175 263.324375 291.7475 
Q 263.974375 291.375 264.801875 291.375 
Q 265.724375 291.375 266.314375 291.7575 
Q 266.904375 292.14 267.146875 292.8275 
Q 268.131875 291.375 269.709375 291.375 
Q 270.944375 291.375 271.606875 292.06 
Q 272.271875 292.7425 272.271875 294.165 
L 272.271875 299.86 
L 270.871875 299.86 
L 270.871875 294.6325 
Q 270.871875 293.79 270.734375 293.42 
Q 270.599375 293.0475 270.239375 292.8225 
Q 269.881875 292.595 269.396875 292.595 
Q 268.521875 292.595 267.941875 293.1775 
Q 267.364375 293.7575 267.364375 295.04 
L 267.364375 299.86 
L 265.959375 299.86 
L 265.959375 294.47 
Q 265.959375 293.5325 265.614375 293.065 
Q 265.271875 292.595 264.489375 292.595 
Q 263.896875 292.595 263.391875 292.9075 
Q 262.889375 293.22 262.661875 293.8225 
Q 262.434375 294.4225 262.434375 295.555 
L 262.434375 299.86 
L 261.029375 299.86 
z
M 280.0375 297.1875 
L 281.49 297.3675 
Q 281.1475 298.64 280.2175 299.345 
Q 279.2875 300.0475 277.8425 300.0475 
Q 276.0225 300.0475 274.955 298.9275 
Q 273.8875 297.805 273.8875 295.7825 
Q 273.8875 293.6875 274.965 292.5325 
Q 276.045 291.375 277.7625 291.375 
Q 279.4275 291.375 280.4825 292.5075 
Q 281.5375 293.64 281.5375 295.695 
Q 281.5375 295.82 281.53 296.07 
L 275.3425 296.07 
Q 275.42 297.4375 276.115 298.165 
Q 276.81 298.89 277.85 298.89 
Q 278.6225 298.89 279.17 298.485 
Q 279.7175 298.0775 280.0375 297.1875 
z
M 275.42 294.915 
L 280.0525 294.915 
Q 279.96 293.8675 279.5225 293.345 
Q 278.85 292.5325 277.78 292.5325 
Q 276.81 292.5325 276.15 293.18 
Q 275.49 293.8275 275.42 294.915 
z
M 290.38875 303.2275 
Q 289.22375 301.7575 288.41875 299.79 
Q 287.61625 297.82 287.61625 295.7125 
Q 287.61625 293.8525 288.21625 292.15 
Q 288.91875 290.1725 290.38875 288.2125 
L 291.39625 288.2125 
Q 290.45125 289.8375 290.14625 290.5325 
Q 289.66875 291.61 289.39625 292.7825 
Q 289.06125 294.2425 289.06125 295.72 
Q 289.06125 299.4775 291.39625 303.2275 
L 290.38875 303.2275 
z
M 292.466875 297.3825 
L 293.856875 297.165 
Q 293.974375 298 294.509375 298.445 
Q 295.044375 298.89 296.006875 298.89 
Q 296.974375 298.89 297.441875 298.4975 
Q 297.911875 298.1025 297.911875 297.57 
Q 297.911875 297.095 297.496875 296.82 
Q 297.209375 296.6325 296.059375 296.345 
Q 294.514375 295.9525 293.916875 295.6675 
Q 293.319375 295.3825 293.009375 294.88 
Q 292.701875 294.375 292.701875 293.765 
Q 292.701875 293.2125 292.954375 292.74 
Q 293.209375 292.265 293.646875 291.9525 
Q 293.974375 291.7125 294.539375 291.545 
Q 295.106875 291.375 295.756875 291.375 
Q 296.731875 291.375 297.469375 291.6575 
Q 298.209375 291.9375 298.559375 292.42 
Q 298.911875 292.9 299.044375 293.7025 
L 297.669375 293.89 
Q 297.576875 293.25 297.126875 292.8925 
Q 296.676875 292.5325 295.856875 292.5325 
Q 294.889375 292.5325 294.474375 292.8525 
Q 294.059375 293.1725 294.059375 293.6025 
Q 294.059375 293.875 294.231875 294.095 
Q 294.404375 294.32 294.771875 294.47 
Q 294.981875 294.5475 296.014375 294.8275 
Q 297.506875 295.2275 298.094375 295.4825 
Q 298.684375 295.735 299.019375 296.22 
Q 299.356875 296.7025 299.356875 297.4225 
Q 299.356875 298.125 298.946875 298.7475 
Q 298.536875 299.3675 297.761875 299.7075 
Q 296.989375 300.0475 296.014375 300.0475 
Q 294.396875 300.0475 293.549375 299.375 
Q 292.701875 298.7025 292.466875 297.3825 
z
M 301.951875 303.2275 
L 300.944375 303.2275 
Q 303.279375 299.4775 303.279375 295.72 
Q 303.279375 294.25 302.944375 292.805 
Q 302.676875 291.6325 302.201875 290.555 
Q 301.896875 289.8525 300.944375 288.2125 
L 301.951875 288.2125 
Q 303.419375 290.1725 304.121875 292.15 
Q 304.724375 293.8525 304.724375 295.7125 
Q 304.724375 297.82 303.914375 299.79 
Q 303.106875 301.7575 301.951875 303.2275 
z
" style="stroke: #ffffff; stroke-width: 3"/>
     <path d="M 251.39375 299.86 
L 251.39375 289.7575 
L 247.62125 289.7575 
L 247.62125 288.4075 
L 256.69875 288.4075 
L 256.69875 289.7575 
L 252.91125 289.7575 
L 252.91125 299.86 
L 251.39375 299.86 
z
M 257.482187 290.025 
L 257.482187 288.4075 
L 258.889687 288.4075 
L 258.889687 290.025 
L 257.482187 290.025 
z
M 257.482187 299.86 
L 257.482187 291.5625 
L 258.889687 291.5625 
L 258.889687 299.86 
L 257.482187 299.86 
z
M 261.029375 299.86 
L 261.029375 291.5625 
L 262.286875 291.5625 
L 262.286875 292.7275 
Q 262.676875 292.1175 263.324375 291.7475 
Q 263.974375 291.375 264.801875 291.375 
Q 265.724375 291.375 266.314375 291.7575 
Q 266.904375 292.14 267.146875 292.8275 
Q 268.131875 291.375 269.709375 291.375 
Q 270.944375 291.375 271.606875 292.06 
Q 272.271875 292.7425 272.271875 294.165 
L 272.271875 299.86 
L 270.871875 299.86 
L 270.871875 294.6325 
Q 270.871875 293.79 270.734375 293.42 
Q 270.599375 293.0475 270.239375 292.8225 
Q 269.881875 292.595 269.396875 292.595 
Q 268.521875 292.595 267.941875 293.1775 
Q 267.364375 293.7575 267.364375 295.04 
L 267.364375 299.86 
L 265.959375 299.86 
L 265.959375 294.47 
Q 265.959375 293.5325 265.614375 293.065 
Q 265.271875 292.595 264.489375 292.595 
Q 263.896875 292.595 263.391875 292.9075 
Q 262.889375 293.22 262.661875 293.8225 
Q 262.434375 294.4225 262.434375 295.555 
L 262.434375 299.86 
L 261.029375 299.86 
z
M 280.0375 297.1875 
L 281.49 297.3675 
Q 281.1475 298.64 280.2175 299.345 
Q 279.2875 300.0475 277.8425 300.0475 
Q 276.0225 300.0475 274.955 298.9275 
Q 273.8875 297.805 273.8875 295.7825 
Q 273.8875 293.6875 274.965 292.5325 
Q 276.045 291.375 277.7625 291.375 
Q 279.4275 291.375 280.4825 292.5075 
Q 281.5375 293.64 281.5375 295.695 
Q 281.5375 295.82 281.53 296.07 
L 275.3425 296.07 
Q 275.42 297.4375 276.115 298.165 
Q 276.81 298.89 277.85 298.89 
Q 278.6225 298.89 279.17 298.485 
Q 279.7175 298.0775 280.0375 297.1875 
z
M 275.42 294.915 
L 280.0525 294.915 
Q 279.96 293.8675 279.5225 293.345 
Q 278.85 292.5325 277.78 292.5325 
Q 276.81 292.5325 276.15 293.18 
Q 275.49 293.8275 275.42 294.915 
z
M 290.38875 303.2275 
Q 289.22375 301.7575 288.41875 299.79 
Q 287.61625 297.82 287.61625 295.7125 
Q 287.61625 293.8525 288.21625 292.15 
Q 288.91875 290.1725 290.38875 288.2125 
L 291.39625 288.2125 
Q 290.45125 289.8375 290.14625 290.5325 
Q 289.66875 291.61 289.39625 292.7825 
Q 289.06125 294.2425 289.06125 295.72 
Q 289.06125 299.4775 291.39625 303.2275 
L 290.38875 303.2275 
z
M 292.466875 297.3825 
L 293.856875 297.165 
Q 293.974375 298 294.509375 298.445 
Q 295.044375 298.89 296.006875 298.89 
Q 296.974375 298.89 297.441875 298.4975 
Q 297.911875 298.1025 297.911875 297.57 
Q 297.911875 297.095 297.496875 296.82 
Q 297.209375 296.6325 296.059375 296.345 
Q 294.514375 295.9525 293.916875 295.6675 
Q 293.319375 295.3825 293.009375 294.88 
Q 292.701875 294.375 292.701875 293.765 
Q 292.701875 293.2125 292.954375 292.74 
Q 293.209375 292.265 293.646875 291.9525 
Q 293.974375 291.7125 294.539375 291.545 
Q 295.106875 291.375 295.756875 291.375 
Q 296.731875 291.375 297.469375 291.6575 
Q 298.209375 291.9375 298.559375 292.42 
Q 298.911875 292.9 299.044375 293.7025 
L 297.669375 293.89 
Q 297.576875 293.25 297.126875 292.8925 
Q 296.676875 292.5325 295.856875 292.5325 
Q 294.889375 292.5325 294.474375 292.8525 
Q 294.059375 293.1725 294.059375 293.6025 
Q 294.059375 293.875 294.231875 294.095 
Q 294.404375 294.32 294.771875 294.47 
Q 294.981875 294.5475 296.014375 294.8275 
Q 297.506875 295.2275 298.094375 295.4825 
Q 298.684375 295.735 299.019375 296.22 
Q 299.356875 296.7025 299.356875 297.4225 
Q 299.356875 298.125 298.946875 298.7475 
Q 298.536875 299.3675 297.761875 299.7075 
Q 296.989375 300.0475 296.014375 300.0475 
Q 294.396875 300.0475 293.549375 299.375 
Q 292.701875 298.7025 292.466875 297.3825 
z
M 301.951875 303.2275 
L 300.944375 303.2275 
Q 303.279375 299.4775 303.279375 295.72 
Q 303.279375 294.25 302.944375 292.805 
Q 302.676875 291.6325 302.201875 290.555 
Q 301.896875 289.8525 300.944375 288.2125 
L 301.951875 288.2125 
Q 303.419375 290.1725 304.121875 292.15 
Q 304.724375 293.8525 304.724375 295.7125 
Q 304.724375 297.82 303.914375 299.79 
Q 303.106875 301.7575 301.951875 303.2275 
z
"/>
    </g>
   </g>
   <g id="matplotlib.axis_2">
    <g id="ytick_1">
     <g id="line2d_13">
      <defs>
       <path id="m47904e0e17" d="M 0 0 
L 4 0 
" style="stroke: #000000; stroke-width: 1.2"/>
      </defs>
      <g>
       <use xlink:href="#m47904e0e17" x="53.0725" y="254.634541" style="stroke: #000000; stroke-width: 1.2"/>
      </g>
     </g>
     <g id="line2d_14">
      <defs>
       <path id="m8af722df59" d="M 0 0 
L -4 0 
" style="stroke: #000000; stroke-width: 1.2"/>
      </defs>
      <g>
       <use xlink:href="#m8af722df59" x="499.4725" y="254.634541" style="stroke: #000000; stroke-width: 1.2"/>
      </g>
     </g>
     <g id="text_8">
      <g id="patch_11">
       <path d="M 21.6405 267.732791 
L 52.2645 267.732791 
L 52.2645 244.716291 
L 21.6405 244.716291 
z
" style="fill: #ffffff; stroke: #ffffff; stroke-linejoin: miter"/>
      </g>
      <path d="M 26.4975 254.713291 
Q 26.4975 252.680791 26.915 251.443291 
Q 27.3325 250.203291 28.155 249.533291 
Q 28.98 248.860791 30.23 248.860791 
Q 31.1525 248.860791 31.8475 249.233291 
Q 32.5425 249.603291 32.995 250.303291 
Q 33.45 251.000791 33.7075 252.005791 
Q 33.965 253.008291 33.965 254.713291 
Q 33.965 256.728291 33.55 257.965791 
Q 33.1375 259.203291 32.3125 259.880791 
Q 31.49 260.555791 30.23 260.555791 
Q 28.575 260.555791 27.63 259.368291 
Q 26.4975 257.938291 26.4975 254.713291 
z
M 27.9425 254.713291 
Q 27.9425 257.533291 28.6025 258.468291 
Q 29.2625 259.400791 30.23 259.400791 
Q 31.2 259.400791 31.86 258.463291 
Q 32.52 257.525791 32.52 254.713291 
Q 32.52 251.883291 31.86 250.955791 
Q 31.2 250.025791 30.215 250.025791 
Q 29.2475 250.025791 28.6675 250.845791 
Q 27.9425 251.890791 27.9425 254.713291 
z
M 36.183438 260.360791 
L 36.183438 258.758291 
L 37.785938 258.758291 
L 37.785938 260.360791 
L 36.183438 260.360791 
z
M 39.84125 254.713291 
Q 39.84125 252.680791 40.25875 251.443291 
Q 40.67625 250.203291 41.49875 249.533291 
Q 42.32375 248.860791 43.57375 248.860791 
Q 44.49625 248.860791 45.19125 249.233291 
Q 45.88625 249.603291 46.33875 250.303291 
Q 46.79375 251.000791 47.05125 252.005791 
Q 47.30875 253.008291 47.30875 254.713291 
Q 47.30875 256.728291 46.89375 257.965791 
Q 46.48125 259.203291 45.65625 259.880791 
Q 44.83375 260.555791 43.57375 260.555791 
Q 41.91875 260.555791 40.97375 259.368291 
Q 39.84125 257.938291 39.84125 254.713291 
z
M 41.28625 254.713291 
Q 41.28625 257.533291 41.94625 258.468291 
Q 42.60625 259.400791 43.57375 259.400791 
Q 44.54375 259.400791 45.20375 258.463291 
Q 45.86375 257.525791 45.86375 254.713291 
Q 45.86375 251.883291 45.20375 250.955791 
Q 44.54375 250.025791 43.55875 250.025791 
Q 42.59125 250.025791 42.01125 250.845791 
Q 41.28625 251.890791 41.28625 254.713291 
z
" style="stroke: #ffffff"/>
      <path d="M 26.4975 254.713291 
Q 26.4975 252.680791 26.915 251.443291 
Q 27.3325 250.203291 28.155 249.533291 
Q 28.98 248.860791 30.23 248.860791 
Q 31.1525 248.860791 31.8475 249.233291 
Q 32.5425 249.603291 32.995 250.303291 
Q 33.45 251.000791 33.7075 252.005791 
Q 33.965 253.008291 33.965 254.713291 
Q 33.965 256.728291 33.55 257.965791 
Q 33.1375 259.203291 32.3125 259.880791 
Q 31.49 260.555791 30.23 260.555791 
Q 28.575 260.555791 27.63 259.368291 
Q 26.4975 257.938291 26.4975 254.713291 
z
M 27.9425 254.713291 
Q 27.9425 257.533291 28.6025 258.468291 
Q 29.2625 259.400791 30.23 259.400791 
Q 31.2 259.400791 31.86 258.463291 
Q 32.52 257.525791 32.52 254.713291 
Q 32.52 251.883291 31.86 250.955791 
Q 31.2 250.025791 30.215 250.025791 
Q 29.2475 250.025791 28.6675 250.845791 
Q 27.9425 251.890791 27.9425 254.713291 
z
M 36.183438 260.360791 
L 36.183438 258.758291 
L 37.785938 258.758291 
L 37.785938 260.360791 
L 36.183438 260.360791 
z
M 39.84125 254.713291 
Q 39.84125 252.680791 40.25875 251.443291 
Q 40.67625 250.203291 41.49875 249.533291 
Q 42.32375 248.860791 43.57375 248.860791 
Q 44.49625 248.860791 45.19125 249.233291 
Q 45.88625 249.603291 46.33875 250.303291 
Q 46.79375 251.000791 47.05125 252.005791 
Q 47.30875 253.008291 47.30875 254.713291 
Q 47.30875 256.728291 46.89375 257.965791 
Q 46.48125 259.203291 45.65625 259.880791 
Q 44.83375 260.555791 43.57375 260.555791 
Q 41.91875 260.555791 40.97375 259.368291 
Q 39.84125 257.938291 39.84125 254.713291 
z
M 41.28625 254.713291 
Q 41.28625 257.533291 41.94625 258.468291 
Q 42.60625 259.400791 43.57375 259.400791 
Q 44.54375 259.400791 45.20375 258.463291 
Q 45.86375 257.525791 45.86375 254.713291 
Q 45.86375 251.883291 45.20375 250.955791 
Q 44.54375 250.025791 43.55875 250.025791 
Q 42.59125 250.025791 42.01125 250.845791 
Q 41.28625 251.890791 41.28625 254.713291 
z
"/>
     </g>
    </g>
    <g id="ytick_2">
     <g id="line2d_15">
      <g>
       <use xlink:href="#m47904e0e17" x="53.0725" y="214.291525" style="stroke: #000000; stroke-width: 1.2"/>
      </g>
     </g>
     <g id="line2d_16">
      <g>
       <use xlink:href="#m8af722df59" x="499.4725" y="214.291525" style="stroke: #000000; stroke-width: 1.2"/>
      </g>
     </g>
     <g id="text_9">
      <g id="patch_12">
       <path d="M 21.6405 227.389775 
L 52.2645 227.389775 
L 52.2645 204.373275 
L 21.6405 204.373275 
z
" style="fill: #ffffff; stroke: #ffffff; stroke-linejoin: miter"/>
      </g>
      <path d="M 26.4975 214.370275 
Q 26.4975 212.337775 26.915 211.100275 
Q 27.3325 209.860275 28.155 209.190275 
Q 28.98 208.517775 30.23 208.517775 
Q 31.1525 208.517775 31.8475 208.890275 
Q 32.5425 209.260275 32.995 209.960275 
Q 33.45 210.657775 33.7075 211.662775 
Q 33.965 212.665275 33.965 214.370275 
Q 33.965 216.385275 33.55 217.622775 
Q 33.1375 218.860275 32.3125 219.537775 
Q 31.49 220.212775 30.23 220.212775 
Q 28.575 220.212775 27.63 219.025275 
Q 26.4975 217.595275 26.4975 214.370275 
z
M 27.9425 214.370275 
Q 27.9425 217.190275 28.6025 218.125275 
Q 29.2625 219.057775 30.23 219.057775 
Q 31.2 219.057775 31.86 218.120275 
Q 32.52 217.182775 32.52 214.370275 
Q 32.52 211.540275 31.86 210.612775 
Q 31.2 209.682775 30.215 209.682775 
Q 29.2475 209.682775 28.6675 210.502775 
Q 27.9425 211.547775 27.9425 214.370275 
z
M 36.183438 220.017775 
L 36.183438 218.415275 
L 37.785938 218.415275 
L 37.785938 220.017775 
L 36.183438 220.017775 
z
M 47.23125 218.665275 
L 47.23125 220.017775 
L 39.66125 220.017775 
Q 39.64625 219.510275 39.82375 219.040275 
Q 40.11375 218.267775 40.74875 217.517775 
Q 41.38625 216.767775 42.59125 215.782775 
Q 44.45875 214.252775 45.11375 213.357775 
Q 45.77125 212.462775 45.77125 211.665275 
Q 45.77125 210.830275 45.17125 210.257775 
Q 44.57375 209.682775 43.61375 209.682775 
Q 42.59875 209.682775 41.98875 210.292775 
Q 41.37875 210.900275 41.37125 211.977775 
L 39.92625 211.830275 
Q 40.07375 210.212775 41.04125 209.365275 
Q 42.01125 208.517775 43.64625 208.517775 
Q 45.29375 208.517775 46.25375 209.432775 
Q 47.21625 210.345275 47.21625 211.697775 
Q 47.21625 212.385275 46.93375 213.050275 
Q 46.65375 213.712775 46.00125 214.447775 
Q 45.34875 215.182775 43.83375 216.462775 
Q 42.56625 217.525275 42.20625 217.905275 
Q 41.84875 218.282775 41.61375 218.665275 
L 47.23125 218.665275 
z
" style="stroke: #ffffff"/>
      <path d="M 26.4975 214.370275 
Q 26.4975 212.337775 26.915 211.100275 
Q 27.3325 209.860275 28.155 209.190275 
Q 28.98 208.517775 30.23 208.517775 
Q 31.1525 208.517775 31.8475 208.890275 
Q 32.5425 209.260275 32.995 209.960275 
Q 33.45 210.657775 33.7075 211.662775 
Q 33.965 212.665275 33.965 214.370275 
Q 33.965 216.385275 33.55 217.622775 
Q 33.1375 218.860275 32.3125 219.537775 
Q 31.49 220.212775 30.23 220.212775 
Q 28.575 220.212775 27.63 219.025275 
Q 26.4975 217.595275 26.4975 214.370275 
z
M 27.9425 214.370275 
Q 27.9425 217.190275 28.6025 218.125275 
Q 29.2625 219.057775 30.23 219.057775 
Q 31.2 219.057775 31.86 218.120275 
Q 32.52 217.182775 32.52 214.370275 
Q 32.52 211.540275 31.86 210.612775 
Q 31.2 209.682775 30.215 209.682775 
Q 29.2475 209.682775 28.6675 210.502775 
Q 27.9425 211.547775 27.9425 214.370275 
z
M 36.183438 220.017775 
L 36.183438 218.415275 
L 37.785938 218.415275 
L 37.785938 220.017775 
L 36.183438 220.017775 
z
M 47.23125 218.665275 
L 47.23125 220.017775 
L 39.66125 220.017775 
Q 39.64625 219.510275 39.82375 219.040275 
Q 40.11375 218.267775 40.74875 217.517775 
Q 41.38625 216.767775 42.59125 215.782775 
Q 44.45875 214.252775 45.11375 213.357775 
Q 45.77125 212.462775 45.77125 211.665275 
Q 45.77125 210.830275 45.17125 210.257775 
Q 44.57375 209.682775 43.61375 209.682775 
Q 42.59875 209.682775 41.98875 210.292775 
Q 41.37875 210.900275 41.37125 211.977775 
L 39.92625 211.830275 
Q 40.07375 210.212775 41.04125 209.365275 
Q 42.01125 208.517775 43.64625 208.517775 
Q 45.29375 208.517775 46.25375 209.432775 
Q 47.21625 210.345275 47.21625 211.697775 
Q 47.21625 212.385275 46.93375 213.050275 
Q 46.65375 213.712775 46.00125 214.447775 
Q 45.34875 215.182775 43.83375 216.462775 
Q 42.56625 217.525275 42.20625 217.905275 
Q 41.84875 218.282775 41.61375 218.665275 
L 47.23125 218.665275 
z
"/>
     </g>
    </g>
    <g id="ytick_3">
     <g id="line2d_17">
      <g>
       <use xlink:href="#m47904e0e17" x="53.0725" y="173.94851" style="stroke: #000000; stroke-width: 1.2"/>
      </g>
     </g>
     <g id="line2d_18">
      <g>
       <use xlink:href="#m8af722df59" x="499.4725" y="173.94851" style="stroke: #000000; stroke-width: 1.2"/>
      </g>
     </g>
     <g id="text_10">
      <g id="patch_13">
       <path d="M 21.6405 187.04676 
L 52.2645 187.04676 
L 52.2645 164.03026 
L 21.6405 164.03026 
z
" style="fill: #ffffff; stroke: #ffffff; stroke-linejoin: miter"/>
      </g>
      <path d="M 26.4975 174.02726 
Q 26.4975 171.99476 26.915 170.75726 
Q 27.3325 169.51726 28.155 168.84726 
Q 28.98 168.17476 30.23 168.17476 
Q 31.1525 168.17476 31.8475 168.54726 
Q 32.5425 168.91726 32.995 169.61726 
Q 33.45 170.31476 33.7075 171.31976 
Q 33.965 172.32226 33.965 174.02726 
Q 33.965 176.04226 33.55 177.27976 
Q 33.1375 178.51726 32.3125 179.19476 
Q 31.49 179.86976 30.23 179.86976 
Q 28.575 179.86976 27.63 178.68226 
Q 26.4975 177.25226 26.4975 174.02726 
z
M 27.9425 174.02726 
Q 27.9425 176.84726 28.6025 177.78226 
Q 29.2625 178.71476 30.23 178.71476 
Q 31.2 178.71476 31.86 177.77726 
Q 32.52 176.83976 32.52 174.02726 
Q 32.52 171.19726 31.86 170.26976 
Q 31.2 169.33976 30.215 169.33976 
Q 29.2475 169.33976 28.6675 170.15976 
Q 27.9425 171.20476 27.9425 174.02726 
z
M 36.183438 179.67476 
L 36.183438 178.07226 
L 37.785938 178.07226 
L 37.785938 179.67476 
L 36.183438 179.67476 
z
M 44.34875 179.67476 
L 44.34875 176.93226 
L 39.37875 176.93226 
L 39.37875 175.64226 
L 44.60625 168.22226 
L 45.75375 168.22226 
L 45.75375 175.64226 
L 47.30125 175.64226 
L 47.30125 176.93226 
L 45.75375 176.93226 
L 45.75375 179.67476 
L 44.34875 179.67476 
z
M 44.34875 175.64226 
L 44.34875 170.47976 
L 40.76125 175.64226 
L 44.34875 175.64226 
z
" style="stroke: #ffffff"/>
      <path d="M 26.4975 174.02726 
Q 26.4975 171.99476 26.915 170.75726 
Q 27.3325 169.51726 28.155 168.84726 
Q 28.98 168.17476 30.23 168.17476 
Q 31.1525 168.17476 31.8475 168.54726 
Q 32.5425 168.91726 32.995 169.61726 
Q 33.45 170.31476 33.7075 171.31976 
Q 33.965 172.32226 33.965 174.02726 
Q 33.965 176.04226 33.55 177.27976 
Q 33.1375 178.51726 32.3125 179.19476 
Q 31.49 179.86976 30.23 179.86976 
Q 28.575 179.86976 27.63 178.68226 
Q 26.4975 177.25226 26.4975 174.02726 
z
M 27.9425 174.02726 
Q 27.9425 176.84726 28.6025 177.78226 
Q 29.2625 178.71476 30.23 178.71476 
Q 31.2 178.71476 31.86 177.77726 
Q 32.52 176.83976 32.52 174.02726 
Q 32.52 171.19726 31.86 170.26976 
Q 31.2 169.33976 30.215 169.33976 
Q 29.2475 169.33976 28.6675 170.15976 
Q 27.9425 171.20476 27.9425 174.02726 
z
M 36.183438 179.67476 
L 36.183438 178.07226 
L 37.785938 178.07226 
L 37.785938 179.67476 
L 36.183438 179.67476 
z
M 44.34875 179.67476 
L 44.34875 176.93226 
L 39.37875 176.93226 
L 39.37875 175.64226 
L 44.60625 168.22226 
L 45.75375 168.22226 
L 45.75375 175.64226 
L 47.30125 175.64226 
L 47.30125 176.93226 
L 45.75375 176.93226 
L 45.75375 179.67476 
L 44.34875 179.67476 
z
M 44.34875 175.64226 
L 44.34875 170.47976 
L 40.76125 175.64226 
L 44.34875 175.64226 
z
"/>
     </g>
    </g>
    <g id="ytick_4">
     <g id="line2d_19">
      <g>
       <use xlink:href="#m47904e0e17" x="53.0725" y="133.605495" style="stroke: #000000; stroke-width: 1.2"/>
      </g>
     </g>
     <g id="line2d_20">
      <g>
       <use xlink:href="#m8af722df59" x="499.4725" y="133.605495" style="stroke: #000000; stroke-width: 1.2"/>
      </g>
     </g>
     <g id="text_11">
      <g id="patch_14">
       <path d="M 21.6405 146.703745 
L 52.2645 146.703745 
L 52.2645 123.687245 
L 21.6405 123.687245 
z
" style="fill: #ffffff; stroke: #ffffff; stroke-linejoin: miter"/>
      </g>
      <path d="M 26.4975 133.684245 
Q 26.4975 131.651745 26.915 130.414245 
Q 27.3325 129.174245 28.155 128.504245 
Q 28.98 127.831745 30.23 127.831745 
Q 31.1525 127.831745 31.8475 128.204245 
Q 32.5425 128.574245 32.995 129.274245 
Q 33.45 129.971745 33.7075 130.976745 
Q 33.965 131.979245 33.965 133.684245 
Q 33.965 135.699245 33.55 136.936745 
Q 33.1375 138.174245 32.3125 138.851745 
Q 31.49 139.526745 30.23 139.526745 
Q 28.575 139.526745 27.63 138.339245 
Q 26.4975 136.909245 26.4975 133.684245 
z
M 27.9425 133.684245 
Q 27.9425 136.504245 28.6025 137.439245 
Q 29.2625 138.371745 30.23 138.371745 
Q 31.2 138.371745 31.86 137.434245 
Q 32.52 136.496745 32.52 133.684245 
Q 32.52 130.854245 31.86 129.926745 
Q 31.2 128.996745 30.215 128.996745 
Q 29.2475 128.996745 28.6675 129.816745 
Q 27.9425 130.861745 27.9425 133.684245 
z
M 36.183438 139.331745 
L 36.183438 137.729245 
L 37.785938 137.729245 
L 37.785938 139.331745 
L 36.183438 139.331745 
z
M 47.13625 130.684245 
L 45.73875 130.791745 
Q 45.55125 129.964245 45.20875 129.589245 
Q 44.63625 128.986745 43.80125 128.986745 
Q 43.12875 128.986745 42.62125 129.361745 
Q 41.95875 129.846745 41.57375 130.776745 
Q 41.19125 131.706745 41.17625 133.424245 
Q 41.68375 132.651745 42.41875 132.276745 
Q 43.15375 131.901745 43.95875 131.901745 
Q 45.36375 131.901745 46.35125 132.936745 
Q 47.34125 133.971745 47.34125 135.611745 
Q 47.34125 136.691745 46.87625 137.616745 
Q 46.41125 138.541745 45.59875 139.034245 
Q 44.78625 139.526745 43.75375 139.526745 
Q 41.99625 139.526745 40.88625 138.234245 
Q 39.77875 136.941745 39.77875 133.971745 
Q 39.77875 130.651745 41.00375 129.144245 
Q 42.07375 127.831745 43.88625 127.831745 
Q 45.23875 127.831745 46.10125 128.589245 
Q 46.96625 129.346745 47.13625 130.684245 
z
M 41.39625 135.621745 
Q 41.39625 136.346745 41.70375 137.011745 
Q 42.01125 137.674245 42.56625 138.024245 
Q 43.12125 138.371745 43.73125 138.371745 
Q 44.62125 138.371745 45.26125 137.654245 
Q 45.90375 136.934245 45.90375 135.699245 
Q 45.90375 134.511745 45.26875 133.829245 
Q 44.63625 133.144245 43.67625 133.144245 
Q 42.72375 133.144245 42.05875 133.829245 
Q 41.39625 134.511745 41.39625 135.621745 
z
" style="stroke: #ffffff"/>
      <path d="M 26.4975 133.684245 
Q 26.4975 131.651745 26.915 130.414245 
Q 27.3325 129.174245 28.155 128.504245 
Q 28.98 127.831745 30.23 127.831745 
Q 31.1525 127.831745 31.8475 128.204245 
Q 32.5425 128.574245 32.995 129.274245 
Q 33.45 129.971745 33.7075 130.976745 
Q 33.965 131.979245 33.965 133.684245 
Q 33.965 135.699245 33.55 136.936745 
Q 33.1375 138.174245 32.3125 138.851745 
Q 31.49 139.526745 30.23 139.526745 
Q 28.575 139.526745 27.63 138.339245 
Q 26.4975 136.909245 26.4975 133.684245 
z
M 27.9425 133.684245 
Q 27.9425 136.504245 28.6025 137.439245 
Q 29.2625 138.371745 30.23 138.371745 
Q 31.2 138.371745 31.86 137.434245 
Q 32.52 136.496745 32.52 133.684245 
Q 32.52 130.854245 31.86 129.926745 
Q 31.2 128.996745 30.215 128.996745 
Q 29.2475 128.996745 28.6675 129.816745 
Q 27.9425 130.861745 27.9425 133.684245 
z
M 36.183438 139.331745 
L 36.183438 137.729245 
L 37.785938 137.729245 
L 37.785938 139.331745 
L 36.183438 139.331745 
z
M 47.13625 130.684245 
L 45.73875 130.791745 
Q 45.55125 129.964245 45.20875 129.589245 
Q 44.63625 128.986745 43.80125 128.986745 
Q 43.12875 128.986745 42.62125 129.361745 
Q 41.95875 129.846745 41.57375 130.776745 
Q 41.19125 131.706745 41.17625 133.424245 
Q 41.68375 132.651745 42.41875 132.276745 
Q 43.15375 131.901745 43.95875 131.901745 
Q 45.36375 131.901745 46.35125 132.936745 
Q 47.34125 133.971745 47.34125 135.611745 
Q 47.34125 136.691745 46.87625 137.616745 
Q 46.41125 138.541745 45.59875 139.034245 
Q 44.78625 139.526745 43.75375 139.526745 
Q 41.99625 139.526745 40.88625 138.234245 
Q 39.77875 136.941745 39.77875 133.971745 
Q 39.77875 130.651745 41.00375 129.144245 
Q 42.07375 127.831745 43.88625 127.831745 
Q 45.23875 127.831745 46.10125 128.589245 
Q 46.96625 129.346745 47.13625 130.684245 
z
M 41.39625 135.621745 
Q 41.39625 136.346745 41.70375 137.011745 
Q 42.01125 137.674245 42.56625 138.024245 
Q 43.12125 138.371745 43.73125 138.371745 
Q 44.62125 138.371745 45.26125 137.654245 
Q 45.90375 136.934245 45.90375 135.699245 
Q 45.90375 134.511745 45.26875 133.829245 
Q 44.63625 133.144245 43.67625 133.144245 
Q 42.72375 133.144245 42.05875 133.829245 
Q 41.39625 134.511745 41.39625 135.621745 
z
"/>
     </g>
    </g>
    <g id="ytick_5">
     <g id="line2d_21">
      <g>
       <use xlink:href="#m47904e0e17" x="53.0725" y="93.262479" style="stroke: #000000; stroke-width: 1.2"/>
      </g>
     </g>
     <g id="line2d_22">
      <g>
       <use xlink:href="#m8af722df59" x="499.4725" y="93.262479" style="stroke: #000000; stroke-width: 1.2"/>
      </g>
     </g>
     <g id="text_12">
      <g id="patch_15">
       <path d="M 21.6405 106.360729 
L 52.2645 106.360729 
L 52.2645 83.344229 
L 21.6405 83.344229 
z
" style="fill: #ffffff; stroke: #ffffff; stroke-linejoin: miter"/>
      </g>
      <path d="M 26.4975 93.341229 
Q 26.4975 91.308729 26.915 90.071229 
Q 27.3325 88.831229 28.155 88.161229 
Q 28.98 87.488729 30.23 87.488729 
Q 31.1525 87.488729 31.8475 87.861229 
Q 32.5425 88.231229 32.995 88.931229 
Q 33.45 89.628729 33.7075 90.633729 
Q 33.965 91.636229 33.965 93.341229 
Q 33.965 95.356229 33.55 96.593729 
Q 33.1375 97.831229 32.3125 98.508729 
Q 31.49 99.183729 30.23 99.183729 
Q 28.575 99.183729 27.63 97.996229 
Q 26.4975 96.566229 26.4975 93.341229 
z
M 27.9425 93.341229 
Q 27.9425 96.161229 28.6025 97.096229 
Q 29.2625 98.028729 30.23 98.028729 
Q 31.2 98.028729 31.86 97.091229 
Q 32.52 96.153729 32.52 93.341229 
Q 32.52 90.511229 31.86 89.583729 
Q 31.2 88.653729 30.215 88.653729 
Q 29.2475 88.653729 28.6675 89.473729 
Q 27.9425 90.518729 27.9425 93.341229 
z
M 36.183438 98.988729 
L 36.183438 97.386229 
L 37.785938 97.386229 
L 37.785938 98.988729 
L 36.183438 98.988729 
z
M 42.00375 92.778729 
Q 41.12875 92.456229 40.70625 91.863729 
Q 40.28625 91.268729 40.28625 90.441229 
Q 40.28625 89.191229 41.18375 88.341229 
Q 42.08375 87.488729 43.57375 87.488729 
Q 45.07375 87.488729 45.98875 88.361229 
Q 46.90375 89.231229 46.90375 90.481229 
Q 46.90375 91.278729 46.48375 91.868729 
Q 46.06625 92.456229 45.21625 92.778729 
Q 46.27125 93.121229 46.82125 93.888729 
Q 47.37125 94.653729 47.37125 95.716229 
Q 47.37125 97.183729 46.33125 98.183729 
Q 45.29375 99.183729 43.59875 99.183729 
Q 41.90375 99.183729 40.86375 98.181229 
Q 39.82375 97.176229 39.82375 95.676229 
Q 39.82375 94.558729 40.39125 93.806229 
Q 40.95875 93.051229 42.00375 92.778729 
z
M 41.72375 90.393729 
Q 41.72375 91.206229 42.24625 91.723729 
Q 42.77125 92.238729 43.60625 92.238729 
Q 44.41875 92.238729 44.93875 91.728729 
Q 45.45875 91.216229 45.45875 90.473729 
Q 45.45875 89.698729 44.92125 89.171229 
Q 44.38625 88.643729 43.59125 88.643729 
Q 42.78625 88.643729 42.25375 89.161229 
Q 41.72375 89.676229 41.72375 90.393729 
z
M 41.27125 95.683729 
Q 41.27125 96.286229 41.55625 96.848729 
Q 41.84125 97.411229 42.40375 97.721229 
Q 42.96625 98.028729 43.61375 98.028729 
Q 44.62125 98.028729 45.27625 97.381229 
Q 45.93375 96.731229 45.93375 95.731229 
Q 45.93375 94.716229 45.25875 94.051229 
Q 44.58375 93.386229 43.56625 93.386229 
Q 42.57375 93.386229 41.92125 94.043729 
Q 41.27125 94.698729 41.27125 95.683729 
z
" style="stroke: #ffffff"/>
      <path d="M 26.4975 93.341229 
Q 26.4975 91.308729 26.915 90.071229 
Q 27.3325 88.831229 28.155 88.161229 
Q 28.98 87.488729 30.23 87.488729 
Q 31.1525 87.488729 31.8475 87.861229 
Q 32.5425 88.231229 32.995 88.931229 
Q 33.45 89.628729 33.7075 90.633729 
Q 33.965 91.636229 33.965 93.341229 
Q 33.965 95.356229 33.55 96.593729 
Q 33.1375 97.831229 32.3125 98.508729 
Q 31.49 99.183729 30.23 99.183729 
Q 28.575 99.183729 27.63 97.996229 
Q 26.4975 96.566229 26.4975 93.341229 
z
M 27.9425 93.341229 
Q 27.9425 96.161229 28.6025 97.096229 
Q 29.2625 98.028729 30.23 98.028729 
Q 31.2 98.028729 31.86 97.091229 
Q 32.52 96.153729 32.52 93.341229 
Q 32.52 90.511229 31.86 89.583729 
Q 31.2 88.653729 30.215 88.653729 
Q 29.2475 88.653729 28.6675 89.473729 
Q 27.9425 90.518729 27.9425 93.341229 
z
M 36.183438 98.988729 
L 36.183438 97.386229 
L 37.785938 97.386229 
L 37.785938 98.988729 
L 36.183438 98.988729 
z
M 42.00375 92.778729 
Q 41.12875 92.456229 40.70625 91.863729 
Q 40.28625 91.268729 40.28625 90.441229 
Q 40.28625 89.191229 41.18375 88.341229 
Q 42.08375 87.488729 43.57375 87.488729 
Q 45.07375 87.488729 45.98875 88.361229 
Q 46.90375 89.231229 46.90375 90.481229 
Q 46.90375 91.278729 46.48375 91.868729 
Q 46.06625 92.456229 45.21625 92.778729 
Q 46.27125 93.121229 46.82125 93.888729 
Q 47.37125 94.653729 47.37125 95.716229 
Q 47.37125 97.183729 46.33125 98.183729 
Q 45.29375 99.183729 43.59875 99.183729 
Q 41.90375 99.183729 40.86375 98.181229 
Q 39.82375 97.176229 39.82375 95.676229 
Q 39.82375 94.558729 40.39125 93.806229 
Q 40.95875 93.051229 42.00375 92.778729 
z
M 41.72375 90.393729 
Q 41.72375 91.206229 42.24625 91.723729 
Q 42.77125 92.238729 43.60625 92.238729 
Q 44.41875 92.238729 44.93875 91.728729 
Q 45.45875 91.216229 45.45875 90.473729 
Q 45.45875 89.698729 44.92125 89.171229 
Q 44.38625 88.643729 43.59125 88.643729 
Q 42.78625 88.643729 42.25375 89.161229 
Q 41.72375 89.676229 41.72375 90.393729 
z
M 41.27125 95.683729 
Q 41.27125 96.286229 41.55625 96.848729 
Q 41.84125 97.411229 42.40375 97.721229 
Q 42.96625 98.028729 43.61375 98.028729 
Q 44.62125 98.028729 45.27625 97.381229 
Q 45.93375 96.731229 45.93375 95.731229 
Q 45.93375 94.716229 45.25875 94.051229 
Q 44.58375 93.386229 43.56625 93.386229 
Q 42.57375 93.386229 41.92125 94.043729 
Q 41.27125 94.698729 41.27125 95.683729 
z
"/>
     </g>
    </g>
    <g id="ytick_6">
     <g id="line2d_23">
      <g>
       <use xlink:href="#m47904e0e17" x="53.0725" y="52.919464" style="stroke: #000000; stroke-width: 1.2"/>
      </g>
     </g>
     <g id="line2d_24">
      <g>
       <use xlink:href="#m8af722df59" x="499.4725" y="52.919464" style="stroke: #000000; stroke-width: 1.2"/>
      </g>
     </g>
     <g id="text_13">
      <g id="patch_16">
       <path d="M 21.6405 66.017714 
L 52.2645 66.017714 
L 52.2645 43.001214 
L 21.6405 43.001214 
z
" style="fill: #ffffff; stroke: #ffffff; stroke-linejoin: miter"/>
      </g>
      <path d="M 31.7925 58.645714 
L 30.3875 58.645714 
L 30.3875 49.685714 
Q 29.88 50.168214 29.055 50.653214 
Q 28.23 51.138214 27.575 51.380714 
L 27.575 50.020714 
Q 28.755 49.465714 29.6375 48.678214 
Q 30.52 47.888214 30.8875 47.145714 
L 31.7925 47.145714 
L 31.7925 58.645714 
z
M 36.183438 58.645714 
L 36.183438 57.043214 
L 37.785938 57.043214 
L 37.785938 58.645714 
L 36.183438 58.645714 
z
M 39.84125 52.998214 
Q 39.84125 50.965714 40.25875 49.728214 
Q 40.67625 48.488214 41.49875 47.818214 
Q 42.32375 47.145714 43.57375 47.145714 
Q 44.49625 47.145714 45.19125 47.518214 
Q 45.88625 47.888214 46.33875 48.588214 
Q 46.79375 49.285714 47.05125 50.290714 
Q 47.30875 51.293214 47.30875 52.998214 
Q 47.30875 55.013214 46.89375 56.250714 
Q 46.48125 57.488214 45.65625 58.165714 
Q 44.83375 58.840714 43.57375 58.840714 
Q 41.91875 58.840714 40.97375 57.653214 
Q 39.84125 56.223214 39.84125 52.998214 
z
M 41.28625 52.998214 
Q 41.28625 55.818214 41.94625 56.753214 
Q 42.60625 57.685714 43.57375 57.685714 
Q 44.54375 57.685714 45.20375 56.748214 
Q 45.86375 55.810714 45.86375 52.998214 
Q 45.86375 50.168214 45.20375 49.240714 
Q 44.54375 48.310714 43.55875 48.310714 
Q 42.59125 48.310714 42.01125 49.130714 
Q 41.28625 50.175714 41.28625 52.998214 
z
" style="stroke: #ffffff"/>
      <path d="M 31.7925 58.645714 
L 30.3875 58.645714 
L 30.3875 49.685714 
Q 29.88 50.168214 29.055 50.653214 
Q 28.23 51.138214 27.575 51.380714 
L 27.575 50.020714 
Q 28.755 49.465714 29.6375 48.678214 
Q 30.52 47.888214 30.8875 47.145714 
L 31.7925 47.145714 
L 31.7925 58.645714 
z
M 36.183438 58.645714 
L 36.183438 57.043214 
L 37.785938 57.043214 
L 37.785938 58.645714 
L 36.183438 58.645714 
z
M 39.84125 52.998214 
Q 39.84125 50.965714 40.25875 49.728214 
Q 40.67625 48.488214 41.49875 47.818214 
Q 42.32375 47.145714 43.57375 47.145714 
Q 44.49625 47.145714 45.19125 47.518214 
Q 45.88625 47.888214 46.33875 48.588214 
Q 46.79375 49.285714 47.05125 50.290714 
Q 47.30875 51.293214 47.30875 52.998214 
Q 47.30875 55.013214 46.89375 56.250714 
Q 46.48125 57.488214 45.65625 58.165714 
Q 44.83375 58.840714 43.57375 58.840714 
Q 41.91875 58.840714 40.97375 57.653214 
Q 39.84125 56.223214 39.84125 52.998214 
z
M 41.28625 52.998214 
Q 41.28625 55.818214 41.94625 56.753214 
Q 42.60625 57.685714 43.57375 57.685714 
Q 44.54375 57.685714 45.20375 56.748214 
Q 45.86375 55.810714 45.86375 52.998214 
Q 45.86375 50.168214 45.20375 49.240714 
Q 44.54375 48.310714 43.55875 48.310714 
Q 42.59125 48.310714 42.01125 49.130714 
Q 41.28625 50.175714 41.28625 52.998214 
z
"/>
     </g>
    </g>
    <g id="text_14">
     <!-- Disp. -->
     <g transform="translate(18.6525 171.92625) rotate(-90) scale(0.16 -0.16)">
      <defs>
       <path id="ArialMT-44" d="M 494 0 
L 494 4581 
L 2072 4581 
Q 2606 4581 2888 4516 
Q 3281 4425 3559 4188 
Q 3922 3881 4101 3404 
Q 4281 2928 4281 2316 
Q 4281 1794 4159 1391 
Q 4038 988 3847 723 
Q 3656 459 3429 307 
Q 3203 156 2883 78 
Q 2563 0 2147 0 
L 494 0 
z
M 1100 541 
L 2078 541 
Q 2531 541 2789 625 
Q 3047 709 3200 863 
Q 3416 1078 3536 1442 
Q 3656 1806 3656 2325 
Q 3656 3044 3420 3430 
Q 3184 3816 2847 3947 
Q 2603 4041 2063 4041 
L 1100 4041 
L 1100 541 
z
" transform="scale(0.015625)"/>
       <path id="ArialMT-69" d="M 425 3934 
L 425 4581 
L 988 4581 
L 988 3934 
L 425 3934 
z
M 425 0 
L 425 3319 
L 988 3319 
L 988 0 
L 425 0 
z
" transform="scale(0.015625)"/>
       <path id="ArialMT-73" d="M 197 991 
L 753 1078 
Q 800 744 1014 566 
Q 1228 388 1613 388 
Q 2000 388 2187 545 
Q 2375 703 2375 916 
Q 2375 1106 2209 1216 
Q 2094 1291 1634 1406 
Q 1016 1563 777 1677 
Q 538 1791 414 1992 
Q 291 2194 291 2438 
Q 291 2659 392 2848 
Q 494 3038 669 3163 
Q 800 3259 1026 3326 
Q 1253 3394 1513 3394 
Q 1903 3394 2198 3281 
Q 2494 3169 2634 2976 
Q 2775 2784 2828 2463 
L 2278 2388 
Q 2241 2644 2061 2787 
Q 1881 2931 1553 2931 
Q 1166 2931 1000 2803 
Q 834 2675 834 2503 
Q 834 2394 903 2306 
Q 972 2216 1119 2156 
Q 1203 2125 1616 2013 
Q 2213 1853 2448 1751 
Q 2684 1650 2818 1456 
Q 2953 1263 2953 975 
Q 2953 694 2789 445 
Q 2625 197 2315 61 
Q 2006 -75 1616 -75 
Q 969 -75 630 194 
Q 291 463 197 991 
z
" transform="scale(0.015625)"/>
       <path id="ArialMT-70" d="M 422 -1272 
L 422 3319 
L 934 3319 
L 934 2888 
Q 1116 3141 1344 3267 
Q 1572 3394 1897 3394 
Q 2322 3394 2647 3175 
Q 2972 2956 3137 2557 
Q 3303 2159 3303 1684 
Q 3303 1175 3120 767 
Q 2938 359 2589 142 
Q 2241 -75 1856 -75 
Q 1575 -75 1351 44 
Q 1128 163 984 344 
L 984 -1272 
L 422 -1272 
z
M 931 1641 
Q 931 1000 1190 694 
Q 1450 388 1819 388 
Q 2194 388 2461 705 
Q 2728 1022 2728 1688 
Q 2728 2322 2467 2637 
Q 2206 2953 1844 2953 
Q 1484 2953 1207 2617 
Q 931 2281 931 1641 
z
" transform="scale(0.015625)"/>
       <path id="ArialMT-2e" d="M 581 0 
L 581 641 
L 1222 641 
L 1222 0 
L 581 0 
z
" transform="scale(0.015625)"/>
      </defs>
      <use xlink:href="#ArialMT-44"/>
      <use xlink:href="#ArialMT-69" x="72.216797"/>
      <use xlink:href="#ArialMT-73" x="94.433594"/>
      <use xlink:href="#ArialMT-70" x="144.433594"/>
      <use xlink:href="#ArialMT-2e" x="200.048828"/>
     </g>
    </g>
   </g>
   <g id="line2d_25">
    <path d="M 53.0725 238.460998 
L 53.668097 234.393649 
L 53.965896 234.381977 
L 55.752687 243.260005 
L 56.348284 249.518216 
L 56.646082 250.3798 
L 56.943881 248.043055 
M 57.539478 239.497779 
L 58.135075 232.994297 
L 59.028471 228.114681 
L 59.624068 223.829699 
L 59.921866 222.601636 
L 60.219665 221.939942 
L 60.517463 222.145816 
L 60.815262 223.155202 
L 62.304255 232.137279 
L 62.899852 236.915452 
M 63.495449 242.949129 
L 63.793247 244.550161 
L 64.091046 244.62819 
L 64.388844 244.212087 
L 64.686643 243.091072 
L 65.28224 242.351495 
L 65.580038 243.290147 
L 65.877837 245.048444 
L 66.473434 253.422592 
L 66.771232 254.5 
L 67.069031 249.888462 
L 67.962427 230.143715 
L 68.558024 223.368617 
L 68.855822 221.527616 
L 69.153621 220.684926 
L 69.451419 220.602158 
L 69.749218 220.796935 
L 70.344815 218.853142 
L 70.642613 219.405041 
L 70.940412 221.377492 
L 71.23821 222.215733 
L 71.536009 219.878136 
L 71.833808 215.680574 
M 72.429405 207.392181 
L 73.025002 201.508318 
L 73.620599 196.381852 
L 74.811793 183.783251 
L 75.40739 179.652734 
L 76.896383 166.499311 
L 77.789778 158.777025 
L 78.385375 153.461572 
L 79.278771 143.750068 
L 79.874368 139.92227 
L 80.469965 135.0163 
L 80.767764 133.649525 
L 81.065562 133.055686 
L 81.661159 133.157811 
L 81.958958 132.547802 
L 82.554555 128.796306 
M 83.150152 123.652948 
L 83.745749 118.226621 
L 84.043547 113.341103 
L 84.639144 100.328483 
L 84.936943 96.197684 
L 85.234741 94.775678 
L 85.53254 95.672354 
L 86.723734 106.21195 
L 87.319331 113.256996 
L 87.914928 117.397318 
L 88.212727 118.742789 
L 88.510525 119.229939 
L 88.808324 119.248521 
L 89.106122 118.98194 
M 89.701719 119.086454 
L 89.999518 119.172857 
L 90.297317 119.426179 
L 90.595115 120.051769 
L 90.892914 121.265307 
L 91.190712 121.700752 
L 91.488511 121.548935 
L 91.786309 121.575059 
L 92.084108 122.393525 
L 92.381906 122.761548 
L 92.977503 121.53462 
L 93.275302 121.851621 
L 94.466496 125.602729 
L 95.062093 128.011998 
L 95.359892 129.537229 
L 95.65769 130.336949 
L 95.955489 129.840261 
L 96.253287 129.069751 
L 96.551086 127.985733 
L 97.146683 124.430698 
L 97.444481 123.920024 
L 97.74228 125.113509 
L 98.635675 131.166847 
L 98.933474 132.722064 
L 99.231273 133.658763 
L 99.529071 134.059684 
L 100.124668 132.909565 
L 101.315862 128.890445 
L 101.613661 128.379697 
M 102.209258 127.797914 
L 102.507056 127.816375 
L 103.102653 129.089371 
L 103.698251 129.087243 
L 104.293848 130.994699 
M 105.187243 129.342616 
L 105.485042 129.04118 
L 105.78284 128.941464 
L 106.080639 129.313488 
L 106.378437 130.116085 
L 107.271833 133.538376 
L 107.569631 134.183438 
L 107.86743 133.898735 
L 108.463027 131.528004 
L 109.356423 127.298938 
L 109.654221 127.112775 
L 110.547617 129.417082 
L 111.441012 130.309934 
L 111.738811 129.682836 
L 112.036609 128.679035 
L 112.334408 128.225152 
L 112.632206 128.000729 
L 112.930005 127.317053 
L 114.121199 123.095012 
L 114.716796 122.194798 
L 115.014595 122.152211 
L 115.610192 121.136117 
L 115.90799 121.557442 
L 116.205789 122.992382 
M 116.801386 124.817675 
L 117.099184 124.933116 
M 117.694782 124.670273 
L 118.290379 125.287723 
L 118.588177 126.057612 
L 118.885976 128.365095 
L 119.779371 141.417612 
L 120.374968 149.477656 
L 120.672767 150.891332 
L 120.970565 151.474994 
L 121.268364 153.422093 
L 121.863961 161.438866 
L 122.459558 164.937585 
L 123.055155 167.661672 
L 124.246349 174.305806 
L 125.437543 180.071549 
L 126.926536 194.416832 
L 127.522133 201.866663 
L 128.11773 206.523849 
L 129.011126 209.672509 
L 129.308924 211.679955 
L 129.606723 214.982946 
L 130.20232 224.301305 
L 130.500118 224.353396 
L 131.691313 205.532203 
L 131.989111 203.507645 
L 132.28691 202.891422 
L 132.882507 204.743857 
M 133.478104 206.249721 
L 133.775902 206.782322 
L 134.073701 208.24956 
L 134.967096 217.117229 
M 179.934675 177.191076 
L 181.125869 194.568339 
L 181.423667 196.694523 
L 182.019265 198.751844 
L 182.317063 199.713393 
L 182.614862 201.468862 
L 182.91266 204.932633 
L 183.508257 216.643773 
L 183.806056 219.136103 
L 184.103854 216.023063 
L 184.401653 210.244636 
M 184.99725 201.608707 
L 185.295048 199.130186 
L 185.592847 197.726057 
L 185.890645 197.95199 
L 186.784041 202.481218 
L 187.08184 202.908012 
L 187.379638 203.913748 
L 187.677437 206.865034 
L 188.273034 215.111026 
L 188.570832 215.930726 
L 188.868631 214.875163 
L 190.059825 207.195396 
L 190.357623 206.948368 
L 190.655422 206.919504 
L 190.95322 206.66685 
L 191.251019 206.569271 
L 191.548818 206.735174 
L 191.846616 207.488154 
L 192.144415 208.637884 
L 194.824601 224.329897 
L 196.015796 231.578789 
L 196.313594 231.9574 
L 196.611393 231.455162 
L 196.909191 230.652454 
L 197.20699 230.475679 
L 197.504788 229.81749 
L 197.802587 229.920732 
L 198.100385 230.561687 
L 198.695982 237.788344 
L 198.993781 238.296908 
L 199.291579 233.837707 
L 199.887176 221.615354 
L 200.482774 215.205764 
L 200.780572 214.283454 
L 201.078371 214.486249 
L 201.971766 216.91862 
L 202.567363 217.737904 
L 202.865162 219.148925 
L 203.460759 223.526172 
L 203.758557 223.004759 
L 204.354154 216.846401 
L 204.949752 210.470393 
L 206.140946 202.097212 
L 206.736543 197.128938 
L 207.33214 193.698547 
L 207.629938 192.355692 
L 208.225535 191.10756 
L 209.416729 187.575634 
L 209.714528 187.661083 
L 210.310125 188.574199 
M 210.905722 186.413715 
L 211.501319 180.778037 
L 212.096916 175.857568 
L 212.692513 173.192891 
L 212.990312 172.771263 
L 213.28811 172.06162 
L 213.585909 168.923026 
L 214.181506 158.156047 
L 215.670499 140.983167 
L 215.968297 138.684802 
L 216.563894 127.84103 
L 217.755088 95.780174 
L 218.052887 93.006617 
L 218.350685 92.978747 
L 218.648484 94.22577 
L 218.946283 94.681635 
L 219.244081 94.933017 
L 219.839678 97.130552 
L 220.137477 97.44667 
L 221.030872 95.943506 
L 221.328671 94.746179 
L 223.115462 82.781379 
L 223.413261 81.367271 
L 223.711059 80.749998 
L 224.008858 80.755371 
L 224.306656 81.213063 
L 224.604455 81.20235 
L 225.200052 79.416534 
L 225.49785 78.893906 
L 225.795649 78.03824 
L 226.093447 76.242921 
L 226.391246 75.571982 
L 226.689044 76.699788 
L 228.178037 88.129476 
L 229.369231 96.201944 
L 229.66703 96.308627 
L 229.964828 94.559345 
M 230.560425 88.602365 
L 230.858224 87.015315 
L 231.156022 87.47309 
L 232.049418 94.975158 
L 233.538411 109.089131 
L 235.920799 128.774354 
L 237.409792 141.471289 
L 237.70759 143.773778 
L 238.303187 151.106865 
L 238.898784 161.419437 
L 239.196583 163.822729 
L 239.494381 162.038533 
L 240.089978 155.660672 
L 240.387777 153.731612 
L 240.685575 153.714422 
L 240.983374 154.855669 
L 241.87677 161.656107 
L 242.174568 163.50807 
L 242.770165 165.631617 
L 243.067964 168.114825 
L 243.663561 176.636509 
L 243.961359 178.022925 
L 244.259158 177.34728 
L 244.854755 174.853023 
L 245.152553 174.507794 
L 245.450352 174.69089 
L 246.045949 175.415493 
L 246.641546 175.539869 
L 246.939345 176.045326 
L 247.237143 177.331572 
L 248.428337 185.671264 
L 249.023934 191.565188 
L 249.619531 198.640103 
L 249.91733 201.038508 
L 250.215128 202.35901 
L 250.512927 202.823616 
L 250.810725 202.984711 
L 251.108524 202.728499 
L 251.406323 203.19033 
L 251.704121 205.453197 
L 252.299718 217.084707 
L 252.597517 219.231439 
L 252.895315 215.696097 
L 253.490912 204.800603 
L 254.086509 199.078921 
L 254.384308 198.271507 
L 254.682106 198.407958 
M 255.277703 199.467614 
L 256.171099 202.40336 
L 257.064495 212.145649 
L 257.362293 212.155674 
L 257.660092 210.389157 
L 258.553487 203.031695 
L 258.851286 201.880802 
M 259.446883 200.358048 
L 260.04248 198.733168 
L 260.340279 198.297222 
L 260.638077 198.556953 
L 261.233674 202.311306 
L 261.829271 205.894757 
L 262.722667 211.342502 
M 263.318264 218.675225 
L 263.616062 221.939792 
L 263.913861 223.356163 
L 264.211659 223.299708 
M 264.807257 221.354958 
L 265.105055 220.480821 
M 265.700652 219.929183 
L 265.998451 223.449578 
L 266.594048 233.44621 
L 266.891846 232.093905 
L 267.487443 220.744873 
M 268.08304 213.96018 
L 268.380839 211.728831 
L 268.678637 210.784652 
L 268.976436 211.268065 
L 269.274234 211.45374 
L 269.869832 211.501062 
L 270.16763 211.904038 
L 270.465429 213.405491 
L 271.061026 218.211099 
L 271.358824 217.42324 
L 271.954421 210.188596 
L 272.847817 198.962431 
L 274.039011 188.078711 
L 274.634608 183.558421 
L 275.528004 180.512917 
L 276.123601 178.682384 
L 276.719198 175.397317 
L 277.016996 174.389073 
L 277.314795 174.521398 
L 277.910392 175.37839 
L 278.20819 174.580216 
L 278.505989 173.014463 
L 278.803788 170.407741 
L 279.101586 166.361488 
M 279.697183 160.216246 
L 279.994982 159.672298 
L 280.590579 159.479635 
L 280.888377 158.518441 
L 281.781773 150.547883 
M 282.37737 146.262244 
L 283.270766 139.685399 
L 283.866363 131.001996 
M 284.46196 117.881821 
L 285.057557 102.013457 
L 285.355355 97.276506 
L 285.653154 95.661928 
L 285.950952 96.454788 
L 286.546549 99.69296 
L 286.844348 100.584398 
L 287.737743 104.902002 
L 288.035542 105.027038 
L 288.631139 104.24744 
L 288.928938 103.559186 
L 289.524535 99.743054 
L 290.120132 96.554901 
L 291.013527 93.34194 
L 291.311326 93.501991 
L 291.609124 94.355822 
L 291.906923 94.27067 
L 292.50252 92.594908 
L 292.800319 92.128708 
L 293.098117 90.728788 
L 293.395916 88.787847 
L 293.693714 88.06487 
M 294.58711 94.991607 
L 296.373901 110.792796 
L 296.969498 114.541093 
L 297.267297 114.453787 
L 297.862894 112.083312 
L 298.160692 112.361023 
L 298.458491 114.251916 
L 300.245282 135.155682 
L 302.925469 161.420729 
L 304.414461 177.070614 
L 305.307857 183.303585 
L 305.903454 188.556196 
L 306.499051 201.364375 
M 307.094648 204.215515 
L 307.690245 195.056393 
L 307.988044 192.281442 
L 308.285842 190.590275 
L 308.583641 189.884519 
L 308.881439 190.410016 
L 309.477036 193.047486 
M 310.072633 194.53925 
L 310.370432 195.376546 
L 310.66823 197.646314 
L 311.263828 205.659077 
L 311.561626 206.776678 
L 311.859425 205.135783 
L 312.455022 200.589466 
L 312.75282 199.098447 
M 313.348417 197.598294 
L 313.944014 196.987434 
L 314.241813 196.319315 
L 314.539611 196.078574 
L 314.83741 196.571556 
L 315.433007 199.736248 
L 317.219798 210.872119 
L 318.113194 220.418294 
L 318.410992 221.783485 
L 318.708791 221.210399 
L 319.006589 219.751947 
L 319.304388 218.997857 
L 319.602186 218.584084 
L 319.899985 218.486693 
L 320.197784 219.091265 
L 321.091179 230.650838 
L 321.388978 227.809249 
L 321.984575 216.500472 
L 322.282373 212.909739 
L 322.87797 209.13812 
L 323.175769 208.305812 
L 323.473567 208.694985 
L 324.664762 212.859413 
L 324.96256 215.988016 
L 325.558157 223.808335 
L 325.855956 224.024507 
L 326.153754 221.821764 
L 327.04715 213.559194 
L 327.642747 211.256479 
M 328.238344 209.305916 
L 328.833941 207.022387 
L 329.131739 206.93692 
L 329.727337 209.17983 
L 330.620732 214.234562 
L 331.514128 220.596763 
L 332.109725 227.105742 
M 332.705322 228.956635 
L 333.00312 227.31369 
L 333.300919 226.29463 
L 333.598717 225.973132 
L 333.896516 225.154725 
L 334.194315 224.697856 
L 334.492113 225.587365 
L 335.08771 235.159991 
L 335.385509 236.241445 
L 335.683307 230.846821 
L 336.278904 215.990913 
L 336.576703 211.017997 
M 337.1723 203.941857 
L 337.767897 200.613259 
L 338.363494 198.542784 
L 338.959091 195.305762 
L 339.25689 195.163942 
L 339.554688 196.250035 
L 339.852487 196.277941 
L 340.150285 194.302669 
L 340.745882 187.19921 
L 341.341479 179.799214 
L 341.937076 174.482516 
L 343.723868 153.282241 
L 344.617263 141.39502 
L 345.510659 132.189138 
L 345.808457 129.867683 
L 346.404054 127.540372 
L 346.701853 124.389032 
L 346.999651 119.564683 
M 347.595248 114.153233 
L 347.893047 112.500759 
L 348.488644 107.834652 
L 348.786443 107.536964 
L 349.084241 108.972729 
L 349.38204 111.109129 
L 349.679838 112.240097 
L 349.977637 112.104646 
L 350.573234 110.96271 
L 351.168831 108.346817 
L 351.764428 103.187646 
L 352.955622 86.312021 
L 353.253421 87.630132 
L 354.742413 100.594789 
M 355.33801 103.532563 
L 355.933607 105.417842 
L 356.231406 105.705014 
L 356.529204 104.806158 
L 357.4226 101.306973 
L 357.720399 100.66918 
L 358.018197 100.80773 
L 358.315996 101.684508 
L 358.613794 101.271839 
L 359.209391 98.775704 
L 359.50719 98.5617 
L 359.804988 97.831737 
L 360.400585 94.48394 
L 360.698384 95.147336 
L 361.293981 99.392066 
L 361.889578 103.478144 
L 363.080772 110.474588 
L 363.676369 113.782716 
L 363.974168 114.057197 
L 364.867563 111.10288 
L 365.165362 112.609348 
L 365.760959 119.136793 
M 366.356556 126.494002 
L 366.952153 133.725857 
L 367.845549 142.137578 
L 368.738944 152.67633 
L 369.334541 162.873203 
L 369.930138 168.433454 
L 370.823534 175.489719 
L 371.419131 182.788084 
L 372.014728 196.245087 
M 372.610325 198.932099 
L 373.205922 192.982113 
L 373.801519 191.239494 
L 374.099318 190.846864 
L 374.397116 191.84923 
L 375.290512 197.124168 
L 375.886109 199.523605 
M 376.481706 206.597469 
L 376.779505 210.168148 
L 377.077303 211.006944 
L 377.375102 209.328465 
L 377.970699 204.673924 
L 378.268497 203.515395 
L 378.566296 202.91477 
L 379.161893 204.273982 
L 379.459691 204.355706 
L 380.055289 203.569857 
L 380.353087 204.258619 
L 381.246483 207.874409 
L 381.544281 208.420482 
L 381.84208 209.931665 
L 383.033274 220.315622 
L 383.331072 220.826124 
M 384.224468 220.495031 
L 384.522267 219.365101 
L 384.820065 219.298014 
L 385.117864 222.950478 
L 385.415662 228.852308 
L 385.713461 232.063808 
L 386.011259 229.856519 
L 386.606856 220.494142 
L 386.904655 218.132595 
M 387.500252 216.077714 
L 387.79805 215.694471 
L 388.095849 216.07667 
L 388.393647 216.800537 
L 389.287043 220.651364 
L 389.584842 223.631855 
L 390.180439 230.985172 
L 390.478237 230.813031 
L 390.776036 228.575404 
L 391.371633 222.197477 
L 391.96723 218.896885 
L 393.456222 214.505498 
L 393.754021 214.518915 
L 394.945215 219.413367 
L 395.243014 219.805279 
L 395.540812 220.555712 
L 396.434208 223.975796 
L 396.732006 223.362758 
L 397.327603 218.458541 
L 398.220999 210.704741 
L 398.518798 209.677586 
L 398.816596 210.922114 
L 399.114395 211.612953 
L 399.412193 208.417718 
L 400.603387 181.30289 
M 401.198984 175.756899 
L 402.09238 169.890642 
L 402.687977 162.742333 
L 403.581373 151.778306 
L 403.879171 148.901796 
L 404.474768 145.658421 
L 406.559358 123.139543 
L 406.857156 119.593594 
L 407.750552 102.862946 
L 408.643948 87.321041 
L 409.239545 81.594036 
L 409.835142 77.75983 
L 410.430739 71.746645 
L 411.621933 63.904982 
L 411.919731 63.919347 
L 412.21753 66.992784 
L 412.813127 75.859311 
L 413.408724 80.597629 
M 414.004321 83.818557 
L 414.30212 84.569893 
L 414.599918 84.769378 
L 414.897717 84.323201 
L 415.195515 82.469668 
L 416.088911 75.419506 
L 416.386709 75.394958 
L 417.280105 79.723873 
L 417.577904 80.560341 
L 418.173501 83.346403 
L 418.471299 83.957429 
L 418.769098 84.159151 
L 419.066896 84.845362 
L 419.364695 85.82918 
L 419.662493 86.190437 
L 419.960292 85.598249 
L 420.25809 84.512822 
L 420.555889 84.27768 
L 420.853687 85.064849 
L 421.747083 91.088415 
L 422.640479 93.713474 
L 423.236076 98.060902 
L 423.831673 103.094441 
L 424.129471 104.317407 
L 424.42727 103.816897 
L 424.725068 102.732557 
L 425.022867 102.286491 
L 425.320665 102.888477 
L 425.618464 103.962054 
L 425.916263 105.728019 
L 427.107457 116.749177 
L 427.703054 120.004264 
L 428.596449 130.83979 
L 428.894248 130.862355 
L 429.489845 129.239662 
L 429.787643 129.196135 
L 430.38324 129.843144 
L 431.276636 131.450574 
L 431.574435 131.788215 
L 431.872233 132.318606 
L 432.170032 133.482082 
L 433.659024 143.438839 
L 434.55242 150.467897 
L 435.148017 156.215999 
L 435.743614 162.650837 
L 436.041413 163.824747 
L 436.63701 163.096658 
L 437.232607 163.277496 
L 437.530405 163.600751 
L 437.828204 165.629067 
L 438.423801 177.101484 
L 438.721599 178.735398 
L 439.019398 174.931881 
L 439.317196 169.459837 
M 439.912794 162.136411 
L 440.210592 160.351463 
L 440.508391 159.343056 
L 440.806189 159.506167 
L 441.699585 163.716255 
L 441.997383 164.600166 
L 442.295182 166.906138 
L 443.188577 177.379755 
L 443.486376 176.411779 
L 444.081973 170.520363 
M 444.67757 165.687002 
L 444.975369 164.365961 
L 445.273167 163.62639 
L 445.868764 162.958627 
L 446.464361 161.589388 
L 446.76216 161.619929 
L 447.357757 164.358478 
L 448.251152 170.506372 
L 448.846749 175.304389 
L 449.442347 181.985835 
M 450.037944 186.305301 
L 450.335742 185.682718 
L 450.633541 183.801033 
L 450.931339 182.674082 
L 451.526936 181.294335 
L 451.824735 181.123219 
L 452.122533 183.807106 
L 452.71813 193.178608 
L 453.015929 193.060287 
L 453.611526 183.990968 
L 454.207123 176.481606 
L 454.504922 174.626968 
L 454.80272 174.086367 
L 455.100519 174.450227 
L 455.993914 178.163432 
L 456.291713 178.746362 
L 456.589511 181.069529 
L 457.185108 187.499271 
L 457.482907 187.117447 
L 458.078504 178.161359 
L 458.9719 163.376551 
L 460.758691 144.077468 
L 461.354288 139.640387 
L 461.949885 136.236059 
L 462.843281 130.610882 
L 463.141079 129.041213 
L 463.438878 128.076672 
L 464.034475 127.220568 
L 464.332273 125.773526 
L 464.92787 120.185453 
L 465.821266 109.339067 
L 466.119064 108.650431 
L 466.416863 108.305401 
L 467.01246 105.717682 
L 467.905856 101.373627 
L 468.203654 100.53815 
L 468.799251 97.744269 
L 469.09705 95.666622 
L 469.990445 85.883 
L 470.288244 81.848393 
L 471.479438 58.506707 
L 471.777236 57.184295 
M 472.372834 60.402987 
L 473.564028 68.277105 
L 474.159625 69.795391 
L 474.755222 70.451577 
L 475.05302 69.78881 
L 476.244214 63.559278 
M 476.839812 61.334263 
L 477.13761 61.149246 
L 477.435409 61.452604 
L 477.733207 60.831522 
L 478.328804 57.979866 
M 478.924401 55.772845 
L 479.2222 53.940942 
L 479.519998 52.9 
L 479.817797 53.875086 
L 481.604588 68.73604 
L 482.497984 74.4174 
L 482.795782 74.852989 
L 483.093581 74.841497 
L 483.391379 74.447853 
L 483.986976 72.038304 
L 484.284775 72.407081 
L 484.880372 77.823997 
L 485.773768 87.123005 
L 486.667163 95.489495 
L 488.751753 116.094259 
L 490.240745 133.382316 
L 490.836343 137.755589 
M 491.729738 146.389893 
L 492.325335 161.502209 
L 492.623134 164.801655 
L 492.920932 162.712736 
L 493.516529 156.462381 
L 494.112126 154.471074 
L 494.409925 153.922109 
L 494.707723 154.853238 
L 495.005522 156.834425 
M 495.601119 160.66599 
L 495.898918 162.08343 
L 496.196716 164.894469 
L 496.494515 169.311789 
M 497.090112 178.652548 
L 497.38791 178.48155 
L 498.281306 171.528127 
L 498.579104 169.809802 
L 498.876903 168.840754 
L 499.174701 168.419864 
L 499.4725 168.350055 
L 499.4725 168.350055 
" clip-path="url(#p4f088a5210)" style="fill: none; stroke: #18212b; stroke-opacity: 0.75; stroke-width: 1.2; stroke-linecap: square"/>
   </g>
   <g id="LineCollection_1">
    <path d="M 57.241679 254.5 
L 57.241679 52.9 
" clip-path="url(#p4f088a5210)" style="fill: none; stroke: #3498db; stroke-opacity: 0.45; stroke-width: 1.2"/>
    <path d="M 63.19765 254.5 
L 63.19765 52.9 
" clip-path="url(#p4f088a5210)" style="fill: none; stroke: #3498db; stroke-opacity: 0.45; stroke-width: 1.2"/>
    <path d="M 72.131606 254.5 
L 72.131606 52.9 
" clip-path="url(#p4f088a5210)" style="fill: none; stroke: #3498db; stroke-opacity: 0.45; stroke-width: 1.2"/>
    <path d="M 82.852353 254.5 
L 82.852353 52.9 
" clip-path="url(#p4f088a5210)" style="fill: none; stroke: #3498db; stroke-opacity: 0.45; stroke-width: 1.2"/>
    <path d="M 89.403921 254.5 
L 89.403921 52.9 
" clip-path="url(#p4f088a5210)" style="fill: none; stroke: #3498db; stroke-opacity: 0.45; stroke-width: 1.2"/>
    <path d="M 101.911459 254.5 
L 101.911459 52.9 
" clip-path="url(#p4f088a5210)" style="fill: none; stroke: #3498db; stroke-opacity: 0.45; stroke-width: 1.2"/>
    <path d="M 104.591646 254.5 
L 104.591646 52.9 
" clip-path="url(#p4f088a5210)" style="fill: none; stroke: #3498db; stroke-opacity: 0.45; stroke-width: 1.2"/>
    <path d="M 104.889445 254.5 
L 104.889445 52.9 
" clip-path="url(#p4f088a5210)" style="fill: none; stroke: #3498db; stroke-opacity: 0.45; stroke-width: 1.2"/>
    <path d="M 116.503587 254.5 
L 116.503587 52.9 
" clip-path="url(#p4f088a5210)" style="fill: none; stroke: #3498db; stroke-opacity: 0.45; stroke-width: 1.2"/>
    <path d="M 117.396983 254.5 
L 117.396983 52.9 
" clip-path="url(#p4f088a5210)" style="fill: none; stroke: #3498db; stroke-opacity: 0.45; stroke-width: 1.2"/>
    <path d="M 133.180305 254.5 
L 133.180305 52.9 
" clip-path="url(#p4f088a5210)" style="fill: none; stroke: #3498db; stroke-opacity: 0.45; stroke-width: 1.2"/>
    <path d="M 184.699451 254.5 
L 184.699451 52.9 
" clip-path="url(#p4f088a5210)" style="fill: none; stroke: #3498db; stroke-opacity: 0.45; stroke-width: 1.2"/>
    <path d="M 210.607924 254.5 
L 210.607924 52.9 
" clip-path="url(#p4f088a5210)" style="fill: none; stroke: #3498db; stroke-opacity: 0.45; stroke-width: 1.2"/>
    <path d="M 230.262627 254.5 
L 230.262627 52.9 
" clip-path="url(#p4f088a5210)" style="fill: none; stroke: #3498db; stroke-opacity: 0.45; stroke-width: 1.2"/>
    <path d="M 254.979905 254.5 
L 254.979905 52.9 
" clip-path="url(#p4f088a5210)" style="fill: none; stroke: #3498db; stroke-opacity: 0.45; stroke-width: 1.2"/>
    <path d="M 259.149084 254.5 
L 259.149084 52.9 
" clip-path="url(#p4f088a5210)" style="fill: none; stroke: #3498db; stroke-opacity: 0.45; stroke-width: 1.2"/>
    <path d="M 263.020465 254.5 
L 263.020465 52.9 
" clip-path="url(#p4f088a5210)" style="fill: none; stroke: #3498db; stroke-opacity: 0.45; stroke-width: 1.2"/>
    <path d="M 264.509458 254.5 
L 264.509458 52.9 
" clip-path="url(#p4f088a5210)" style="fill: none; stroke: #3498db; stroke-opacity: 0.45; stroke-width: 1.2"/>
    <path d="M 265.402854 254.5 
L 265.402854 52.9 
" clip-path="url(#p4f088a5210)" style="fill: none; stroke: #3498db; stroke-opacity: 0.45; stroke-width: 1.2"/>
    <path d="M 267.785242 254.5 
L 267.785242 52.9 
" clip-path="url(#p4f088a5210)" style="fill: none; stroke: #3498db; stroke-opacity: 0.45; stroke-width: 1.2"/>
    <path d="M 279.399385 254.5 
L 279.399385 52.9 
" clip-path="url(#p4f088a5210)" style="fill: none; stroke: #3498db; stroke-opacity: 0.45; stroke-width: 1.2"/>
    <path d="M 282.079571 254.5 
L 282.079571 52.9 
" clip-path="url(#p4f088a5210)" style="fill: none; stroke: #3498db; stroke-opacity: 0.45; stroke-width: 1.2"/>
    <path d="M 284.164161 254.5 
L 284.164161 52.9 
" clip-path="url(#p4f088a5210)" style="fill: none; stroke: #3498db; stroke-opacity: 0.45; stroke-width: 1.2"/>
    <path d="M 293.991513 254.5 
L 293.991513 52.9 
" clip-path="url(#p4f088a5210)" style="fill: none; stroke: #3498db; stroke-opacity: 0.45; stroke-width: 1.2"/>
    <path d="M 294.289311 254.5 
L 294.289311 52.9 
" clip-path="url(#p4f088a5210)" style="fill: none; stroke: #3498db; stroke-opacity: 0.45; stroke-width: 1.2"/>
    <path d="M 306.79685 254.5 
L 306.79685 52.9 
" clip-path="url(#p4f088a5210)" style="fill: none; stroke: #3498db; stroke-opacity: 0.45; stroke-width: 1.2"/>
    <path d="M 309.774835 254.5 
L 309.774835 52.9 
" clip-path="url(#p4f088a5210)" style="fill: none; stroke: #3498db; stroke-opacity: 0.45; stroke-width: 1.2"/>
    <path d="M 313.050619 254.5 
L 313.050619 52.9 
" clip-path="url(#p4f088a5210)" style="fill: none; stroke: #3498db; stroke-opacity: 0.45; stroke-width: 1.2"/>
    <path d="M 327.940545 254.5 
L 327.940545 52.9 
" clip-path="url(#p4f088a5210)" style="fill: none; stroke: #3498db; stroke-opacity: 0.45; stroke-width: 1.2"/>
    <path d="M 332.407523 254.5 
L 332.407523 52.9 
" clip-path="url(#p4f088a5210)" style="fill: none; stroke: #3498db; stroke-opacity: 0.45; stroke-width: 1.2"/>
    <path d="M 336.874501 254.5 
L 336.874501 52.9 
" clip-path="url(#p4f088a5210)" style="fill: none; stroke: #3498db; stroke-opacity: 0.45; stroke-width: 1.2"/>
    <path d="M 347.29745 254.5 
L 347.29745 52.9 
" clip-path="url(#p4f088a5210)" style="fill: none; stroke: #3498db; stroke-opacity: 0.45; stroke-width: 1.2"/>
    <path d="M 355.040212 254.5 
L 355.040212 52.9 
" clip-path="url(#p4f088a5210)" style="fill: none; stroke: #3498db; stroke-opacity: 0.45; stroke-width: 1.2"/>
    <path d="M 366.058758 254.5 
L 366.058758 52.9 
" clip-path="url(#p4f088a5210)" style="fill: none; stroke: #3498db; stroke-opacity: 0.45; stroke-width: 1.2"/>
    <path d="M 372.312527 254.5 
L 372.312527 52.9 
" clip-path="url(#p4f088a5210)" style="fill: none; stroke: #3498db; stroke-opacity: 0.45; stroke-width: 1.2"/>
    <path d="M 376.183908 254.5 
L 376.183908 52.9 
" clip-path="url(#p4f088a5210)" style="fill: none; stroke: #3498db; stroke-opacity: 0.45; stroke-width: 1.2"/>
    <path d="M 383.628871 254.5 
L 383.628871 52.9 
" clip-path="url(#p4f088a5210)" style="fill: none; stroke: #3498db; stroke-opacity: 0.45; stroke-width: 1.2"/>
    <path d="M 383.926669 254.5 
L 383.926669 52.9 
" clip-path="url(#p4f088a5210)" style="fill: none; stroke: #3498db; stroke-opacity: 0.45; stroke-width: 1.2"/>
    <path d="M 387.202453 254.5 
L 387.202453 52.9 
" clip-path="url(#p4f088a5210)" style="fill: none; stroke: #3498db; stroke-opacity: 0.45; stroke-width: 1.2"/>
    <path d="M 400.901186 254.5 
L 400.901186 52.9 
" clip-path="url(#p4f088a5210)" style="fill: none; stroke: #3498db; stroke-opacity: 0.45; stroke-width: 1.2"/>
    <path d="M 413.706523 254.5 
L 413.706523 52.9 
" clip-path="url(#p4f088a5210)" style="fill: none; stroke: #3498db; stroke-opacity: 0.45; stroke-width: 1.2"/>
    <path d="M 439.614995 254.5 
L 439.614995 52.9 
" clip-path="url(#p4f088a5210)" style="fill: none; stroke: #3498db; stroke-opacity: 0.45; stroke-width: 1.2"/>
    <path d="M 444.379772 254.5 
L 444.379772 52.9 
" clip-path="url(#p4f088a5210)" style="fill: none; stroke: #3498db; stroke-opacity: 0.45; stroke-width: 1.2"/>
    <path d="M 449.740145 254.5 
L 449.740145 52.9 
" clip-path="url(#p4f088a5210)" style="fill: none; stroke: #3498db; stroke-opacity: 0.45; stroke-width: 1.2"/>
    <path d="M 472.075035 254.5 
L 472.075035 52.9 
" clip-path="url(#p4f088a5210)" style="fill: none; stroke: #3498db; stroke-opacity: 0.45; stroke-width: 1.2"/>
    <path d="M 476.542013 254.5 
L 476.542013 52.9 
" clip-path="url(#p4f088a5210)" style="fill: none; stroke: #3498db; stroke-opacity: 0.45; stroke-width: 1.2"/>
    <path d="M 478.626603 254.5 
L 478.626603 52.9 
" clip-path="url(#p4f088a5210)" style="fill: none; stroke: #3498db; stroke-opacity: 0.45; stroke-width: 1.2"/>
    <path d="M 491.134141 254.5 
L 491.134141 52.9 
" clip-path="url(#p4f088a5210)" style="fill: none; stroke: #3498db; stroke-opacity: 0.45; stroke-width: 1.2"/>
    <path d="M 491.43194 254.5 
L 491.43194 52.9 
" clip-path="url(#p4f088a5210)" style="fill: none; stroke: #3498db; stroke-opacity: 0.45; stroke-width: 1.2"/>
    <path d="M 495.303321 254.5 
L 495.303321 52.9 
" clip-path="url(#p4f088a5210)" style="fill: none; stroke: #3498db; stroke-opacity: 0.45; stroke-width: 1.2"/>
    <path d="M 496.792313 254.5 
L 496.792313 52.9 
" clip-path="url(#p4f088a5210)" style="fill: none; stroke: #3498db; stroke-opacity: 0.45; stroke-width: 1.2"/>
   </g>
   <g id="patch_17">
    <path d="M 53.0725 264.58 
L 53.0725 42.82 
" style="fill: none; stroke: #000000; stroke-width: 1.2; stroke-linejoin: miter; stroke-linecap: square"/>
   </g>
   <g id="patch_18">
    <path d="M 499.4725 264.58 
L 499.4725 42.82 
" style="fill: none; stroke: #000000; stroke-width: 1.2; stroke-linejoin: miter; stroke-linecap: square"/>
   </g>
   <g id="patch_19">
    <path d="M 53.0725 264.58 
L 499.4725 264.58 
" style="fill: none; stroke: #000000; stroke-width: 1.2; stroke-linejoin: miter; stroke-linecap: square"/>
   </g>
   <g id="patch_20">
    <path d="M 53.0725 42.82 
L 499.4725 42.82 
" style="fill: none; stroke: #000000; stroke-width: 1.2; stroke-linejoin: miter; stroke-linecap: square"/>
   </g>
  </g>
  <g id="legend_1">
   <g id="line2d_26">
    <path d="M 105.55625 19.4525 
L 121.55625 19.4525 
L 137.55625 19.4525 
" style="fill: none; stroke: #18212b; stroke-opacity: 0.75; stroke-width: 1.2; stroke-linecap: square"/>
   </g>
   <g id="text_15">
    <!-- Ground Truth -->
    <g transform="translate(150.35625 25.0525) scale(0.16 -0.16)">
     <defs>
      <path id="ArialMT-47" d="M 2638 1797 
L 2638 2334 
L 4578 2338 
L 4578 638 
Q 4131 281 3656 101 
Q 3181 -78 2681 -78 
Q 2006 -78 1454 211 
Q 903 500 622 1047 
Q 341 1594 341 2269 
Q 341 2938 620 3517 
Q 900 4097 1425 4378 
Q 1950 4659 2634 4659 
Q 3131 4659 3532 4498 
Q 3934 4338 4162 4050 
Q 4391 3763 4509 3300 
L 3963 3150 
Q 3859 3500 3706 3700 
Q 3553 3900 3268 4020 
Q 2984 4141 2638 4141 
Q 2222 4141 1919 4014 
Q 1616 3888 1430 3681 
Q 1244 3475 1141 3228 
Q 966 2803 966 2306 
Q 966 1694 1177 1281 
Q 1388 869 1791 669 
Q 2194 469 2647 469 
Q 3041 469 3416 620 
Q 3791 772 3984 944 
L 3984 1797 
L 2638 1797 
z
" transform="scale(0.015625)"/>
      <path id="ArialMT-72" d="M 416 0 
L 416 3319 
L 922 3319 
L 922 2816 
Q 1116 3169 1280 3281 
Q 1444 3394 1641 3394 
Q 1925 3394 2219 3213 
L 2025 2691 
Q 1819 2813 1613 2813 
Q 1428 2813 1281 2702 
Q 1134 2591 1072 2394 
Q 978 2094 978 1738 
L 978 0 
L 416 0 
z
" transform="scale(0.015625)"/>
      <path id="ArialMT-6f" d="M 213 1659 
Q 213 2581 725 3025 
Q 1153 3394 1769 3394 
Q 2453 3394 2887 2945 
Q 3322 2497 3322 1706 
Q 3322 1066 3130 698 
Q 2938 331 2570 128 
Q 2203 -75 1769 -75 
Q 1072 -75 642 372 
Q 213 819 213 1659 
z
M 791 1659 
Q 791 1022 1069 705 
Q 1347 388 1769 388 
Q 2188 388 2466 706 
Q 2744 1025 2744 1678 
Q 2744 2294 2464 2611 
Q 2184 2928 1769 2928 
Q 1347 2928 1069 2612 
Q 791 2297 791 1659 
z
" transform="scale(0.015625)"/>
      <path id="ArialMT-75" d="M 2597 0 
L 2597 488 
Q 2209 -75 1544 -75 
Q 1250 -75 995 37 
Q 741 150 617 320 
Q 494 491 444 738 
Q 409 903 409 1263 
L 409 3319 
L 972 3319 
L 972 1478 
Q 972 1038 1006 884 
Q 1059 663 1231 536 
Q 1403 409 1656 409 
Q 1909 409 2131 539 
Q 2353 669 2445 892 
Q 2538 1116 2538 1541 
L 2538 3319 
L 3100 3319 
L 3100 0 
L 2597 0 
z
" transform="scale(0.015625)"/>
      <path id="ArialMT-6e" d="M 422 0 
L 422 3319 
L 928 3319 
L 928 2847 
Q 1294 3394 1984 3394 
Q 2284 3394 2536 3286 
Q 2788 3178 2913 3003 
Q 3038 2828 3088 2588 
Q 3119 2431 3119 2041 
L 3119 0 
L 2556 0 
L 2556 2019 
Q 2556 2363 2490 2533 
Q 2425 2703 2258 2804 
Q 2091 2906 1866 2906 
Q 1506 2906 1245 2678 
Q 984 2450 984 1813 
L 984 0 
L 422 0 
z
" transform="scale(0.015625)"/>
      <path id="ArialMT-64" d="M 2575 0 
L 2575 419 
Q 2259 -75 1647 -75 
Q 1250 -75 917 144 
Q 584 363 401 755 
Q 219 1147 219 1656 
Q 219 2153 384 2558 
Q 550 2963 881 3178 
Q 1213 3394 1622 3394 
Q 1922 3394 2156 3267 
Q 2391 3141 2538 2938 
L 2538 4581 
L 3097 4581 
L 3097 0 
L 2575 0 
z
M 797 1656 
Q 797 1019 1065 703 
Q 1334 388 1700 388 
Q 2069 388 2326 689 
Q 2584 991 2584 1609 
Q 2584 2291 2321 2609 
Q 2059 2928 1675 2928 
Q 1300 2928 1048 2622 
Q 797 2316 797 1656 
z
" transform="scale(0.015625)"/>
      <path id="ArialMT-20" transform="scale(0.015625)"/>
      <path id="ArialMT-54" d="M 1659 0 
L 1659 4041 
L 150 4041 
L 150 4581 
L 3781 4581 
L 3781 4041 
L 2266 4041 
L 2266 0 
L 1659 0 
z
" transform="scale(0.015625)"/>
      <path id="ArialMT-74" d="M 1650 503 
L 1731 6 
Q 1494 -44 1306 -44 
Q 1000 -44 831 53 
Q 663 150 594 308 
Q 525 466 525 972 
L 525 2881 
L 113 2881 
L 113 3319 
L 525 3319 
L 525 4141 
L 1084 4478 
L 1084 3319 
L 1650 3319 
L 1650 2881 
L 1084 2881 
L 1084 941 
Q 1084 700 1114 631 
Q 1144 563 1211 522 
Q 1278 481 1403 481 
Q 1497 481 1650 503 
z
" transform="scale(0.015625)"/>
      <path id="ArialMT-68" d="M 422 0 
L 422 4581 
L 984 4581 
L 984 2938 
Q 1378 3394 1978 3394 
Q 2347 3394 2619 3248 
Q 2891 3103 3008 2847 
Q 3125 2591 3125 2103 
L 3125 0 
L 2563 0 
L 2563 2103 
Q 2563 2525 2380 2717 
Q 2197 2909 1863 2909 
Q 1613 2909 1392 2779 
Q 1172 2650 1078 2428 
Q 984 2206 984 1816 
L 984 0 
L 422 0 
z
" transform="scale(0.015625)"/>
     </defs>
     <use xlink:href="#ArialMT-47"/>
     <use xlink:href="#ArialMT-72" x="77.783203"/>
     <use xlink:href="#ArialMT-6f" x="111.083984"/>
     <use xlink:href="#ArialMT-75" x="166.699219"/>
     <use xlink:href="#ArialMT-6e" x="222.314453"/>
     <use xlink:href="#ArialMT-64" x="277.929688"/>
     <use xlink:href="#ArialMT-20" x="333.544922"/>
     <use xlink:href="#ArialMT-54" x="359.578125"/>
     <use xlink:href="#ArialMT-72" x="416.912109"/>
     <use xlink:href="#ArialMT-75" x="450.212891"/>
     <use xlink:href="#ArialMT-74" x="505.828125"/>
     <use xlink:href="#ArialMT-68" x="533.611328"/>
    </g>
   </g>
   <g id="patch_21">
    <path d="M 276.62375 25.0525 
L 308.62375 25.0525 
L 308.62375 13.8525 
L 276.62375 13.8525 
z
" style="fill: #3498db; opacity: 0.45"/>
   </g>
   <g id="text_16">
    <!-- Masked Region -->
    <g transform="translate(321.42375 25.0525) scale(0.16 -0.16)">
     <defs>
      <path id="ArialMT-4d" d="M 475 0 
L 475 4581 
L 1388 4581 
L 2472 1338 
Q 2622 884 2691 659 
Q 2769 909 2934 1394 
L 4031 4581 
L 4847 4581 
L 4847 0 
L 4263 0 
L 4263 3834 
L 2931 0 
L 2384 0 
L 1059 3900 
L 1059 0 
L 475 0 
z
" transform="scale(0.015625)"/>
      <path id="ArialMT-61" d="M 2588 409 
Q 2275 144 1986 34 
Q 1697 -75 1366 -75 
Q 819 -75 525 192 
Q 231 459 231 875 
Q 231 1119 342 1320 
Q 453 1522 633 1644 
Q 813 1766 1038 1828 
Q 1203 1872 1538 1913 
Q 2219 1994 2541 2106 
Q 2544 2222 2544 2253 
Q 2544 2597 2384 2738 
Q 2169 2928 1744 2928 
Q 1347 2928 1158 2789 
Q 969 2650 878 2297 
L 328 2372 
Q 403 2725 575 2942 
Q 747 3159 1072 3276 
Q 1397 3394 1825 3394 
Q 2250 3394 2515 3294 
Q 2781 3194 2906 3042 
Q 3031 2891 3081 2659 
Q 3109 2516 3109 2141 
L 3109 1391 
Q 3109 606 3145 398 
Q 3181 191 3288 0 
L 2700 0 
Q 2613 175 2588 409 
z
M 2541 1666 
Q 2234 1541 1622 1453 
Q 1275 1403 1131 1340 
Q 988 1278 909 1158 
Q 831 1038 831 891 
Q 831 666 1001 516 
Q 1172 366 1500 366 
Q 1825 366 2078 508 
Q 2331 650 2450 897 
Q 2541 1088 2541 1459 
L 2541 1666 
z
" transform="scale(0.015625)"/>
      <path id="ArialMT-6b" d="M 425 0 
L 425 4581 
L 988 4581 
L 988 1969 
L 2319 3319 
L 3047 3319 
L 1778 2088 
L 3175 0 
L 2481 0 
L 1384 1697 
L 988 1316 
L 988 0 
L 425 0 
z
" transform="scale(0.015625)"/>
      <path id="ArialMT-65" d="M 2694 1069 
L 3275 997 
Q 3138 488 2766 206 
Q 2394 -75 1816 -75 
Q 1088 -75 661 373 
Q 234 822 234 1631 
Q 234 2469 665 2931 
Q 1097 3394 1784 3394 
Q 2450 3394 2872 2941 
Q 3294 2488 3294 1666 
Q 3294 1616 3291 1516 
L 816 1516 
Q 847 969 1125 678 
Q 1403 388 1819 388 
Q 2128 388 2347 550 
Q 2566 713 2694 1069 
z
M 847 1978 
L 2700 1978 
Q 2663 2397 2488 2606 
Q 2219 2931 1791 2931 
Q 1403 2931 1139 2672 
Q 875 2413 847 1978 
z
" transform="scale(0.015625)"/>
      <path id="ArialMT-52" d="M 503 0 
L 503 4581 
L 2534 4581 
Q 3147 4581 3465 4457 
Q 3784 4334 3975 4021 
Q 4166 3709 4166 3331 
Q 4166 2844 3850 2509 
Q 3534 2175 2875 2084 
Q 3116 1969 3241 1856 
Q 3506 1613 3744 1247 
L 4541 0 
L 3778 0 
L 3172 953 
Q 2906 1366 2734 1584 
Q 2563 1803 2427 1890 
Q 2291 1978 2150 2013 
Q 2047 2034 1813 2034 
L 1109 2034 
L 1109 0 
L 503 0 
z
M 1109 2559 
L 2413 2559 
Q 2828 2559 3062 2645 
Q 3297 2731 3419 2920 
Q 3541 3109 3541 3331 
Q 3541 3656 3305 3865 
Q 3069 4075 2559 4075 
L 1109 4075 
L 1109 2559 
z
" transform="scale(0.015625)"/>
      <path id="ArialMT-67" d="M 319 -275 
L 866 -356 
Q 900 -609 1056 -725 
Q 1266 -881 1628 -881 
Q 2019 -881 2231 -725 
Q 2444 -569 2519 -288 
Q 2563 -116 2559 434 
Q 2191 0 1641 0 
Q 956 0 581 494 
Q 206 988 206 1678 
Q 206 2153 378 2554 
Q 550 2956 876 3175 
Q 1203 3394 1644 3394 
Q 2231 3394 2613 2919 
L 2613 3319 
L 3131 3319 
L 3131 450 
Q 3131 -325 2973 -648 
Q 2816 -972 2473 -1159 
Q 2131 -1347 1631 -1347 
Q 1038 -1347 672 -1080 
Q 306 -813 319 -275 
z
M 784 1719 
Q 784 1066 1043 766 
Q 1303 466 1694 466 
Q 2081 466 2343 764 
Q 2606 1063 2606 1700 
Q 2606 2309 2336 2618 
Q 2066 2928 1684 2928 
Q 1309 2928 1046 2623 
Q 784 2319 784 1719 
z
" transform="scale(0.015625)"/>
     </defs>
     <use xlink:href="#ArialMT-4d"/>
     <use xlink:href="#ArialMT-61" x="83.300781"/>
     <use xlink:href="#ArialMT-73" x="138.916016"/>
     <use xlink:href="#ArialMT-6b" x="188.916016"/>
     <use xlink:href="#ArialMT-65" x="238.916016"/>
     <use xlink:href="#ArialMT-64" x="294.53125"/>
     <use xlink:href="#ArialMT-20" x="350.146484"/>
     <use xlink:href="#ArialMT-52" x="377.929688"/>
     <use xlink:href="#ArialMT-65" x="450.146484"/>
     <use xlink:href="#ArialMT-67" x="505.761719"/>
     <use xlink:href="#ArialMT-69" x="561.376953"/>
     <use xlink:href="#ArialMT-6f" x="583.59375"/>
     <use xlink:href="#ArialMT-6e" x="639.208984"/>
    </g>
   </g>
  </g>
 </g>
 <defs>
  <clipPath id="p4f088a5210">
   <rect x="53.0725" y="42.82" width="446.4" height="221.76"/>
  </clipPath>
 </defs>
</svg>
